<?xml version="1.0" encoding="UTF-8"?>
<!DOCTYPE svg PUBLIC "-//W3C//DTD SVG 1.1//EN" "http://www.w3.org/Graphics/SVG/1.1/DTD/svg11.dtd">
<!-- Creator: CorelDRAW X8 -->
<svg xmlns="http://www.w3.org/2000/svg" xml:space="preserve" width="14.3932mm" height="14.3932mm" version="1.1" style="shape-rendering:geometricPrecision; text-rendering:geometricPrecision; image-rendering:optimizeQuality; fill-rule:evenodd; clip-rule:evenodd"
viewBox="0 0 1439 1439"
 xmlns:xlink="http://www.w3.org/1999/xlink">
 <defs>
  <style type="text/css">
   <![CDATA[
    .str0 {stroke:#373435;stroke-width:17.77}
    .fil2 {fill:#21ADE3}
    .fil0 {fill:#14748A}
    .fil3 {fill:#373435}
    .fil1 {fill:#F7F7F7}
   ]]>
  </style>
 </defs>
 <g id="Camada_x0020_1">
  <metadata id="CorelCorpID_0Corel-Layer"/>
  <g id="_2473049784944">
   <circle class="fil0 str0" cx="720" cy="720" r="711"/>
   <circle class="fil1" cx="720" cy="720" r="661"/>
   <path class="fil2" d="M718 1225l3 0c154,0 303,-17 450,-50 -43,-207 -68,-410 -41,-616 -145,0 -139,-170 -141,-332 -36,-4 -73,-8 -109,-13 11,111 -49,185 -160,187l0 0c-112,-2 -172,-76 -161,-187 -36,5 -72,9 -109,13 -2,162 4,332 -141,332 27,206 2,409 -41,616 147,33 297,50 450,50z"/>
   <g>
    <path class="fil3" d="M717 628c-19,4 -14,-1 -37,9 -30,11 -61,40 -75,70 -13,27 -19,45 -19,82 0,15 0,32 5,46 4,11 8,26 14,36 1,2 2,3 4,7 18,32 29,30 39,59 13,37 0,50 18,70 8,9 5,7 5,20 -1,10 0,16 1,25 1,22 -4,26 7,44 5,9 14,17 26,22 8,3 34,4 43,3 58,-10 42,-76 45,-103 1,-13 14,-10 17,-32 3,-20 -1,-25 6,-44 6,-15 8,-21 16,-33 7,-10 12,-12 21,-29 5,-10 12,-21 16,-33 17,-61 12,-110 -23,-161 -26,-38 -85,-68 -129,-58z"/>
    <path class="fil3" d="M527 886c-11,4 -25,13 -35,18 -5,3 -13,6 -15,11 -3,9 5,15 12,13 5,-2 48,-23 50,-29 4,-11 -3,-16 -12,-13z"/>
    <path class="fil3" d="M592 969c-12,7 -10,13 -23,33 -3,5 -8,12 -11,18 -4,9 2,19 11,14 3,-1 33,-48 34,-51 2,-9 -5,-18 -11,-14z"/>
    <path class="fil3" d="M713 528l0 47c0,8 1,14 9,14 8,0 9,-6 9,-15 0,-15 0,-31 0,-46 -1,-20 -18,-18 -18,0z"/>
    <path class="fil3" d="M502 794c9,0 22,2 20,-11 -1,-7 -7,-7 -14,-8 -12,-2 -27,-1 -39,-2 -7,0 -13,0 -14,7 -2,7 3,11 9,12 11,1 28,2 38,2z"/>
    <path class="fil3" d="M963 923c2,-16 -17,-19 -28,-25 -8,-5 -31,-20 -34,-6 -2,8 5,12 10,14 5,3 13,7 18,10 6,3 11,6 17,9 8,5 11,6 17,-2z"/>
    <path class="fil3" d="M884 1031c1,-13 -13,-26 -19,-36 -4,-6 -6,-11 -10,-18 -9,-12 -16,-4 -17,-1 -3,10 9,22 18,36 12,20 15,31 28,19z"/>
    <path class="fil3" d="M932 643c-5,2 -45,30 -46,33 -3,9 3,16 12,12 2,0 6,-4 8,-5l24 -17c3,-2 13,-8 14,-11 5,-10 -3,-17 -12,-12z"/>
    <path class="fil3" d="M616 614l10 0c6,-12 -1,-17 -10,-36 -6,-12 -13,-31 -21,-31 -17,1 0,28 3,33 5,11 11,26 18,34z"/>
    <path class="fil3" d="M840 549c-4,3 -27,50 -28,53 -2,10 5,16 12,12 4,-3 16,-28 19,-35 2,-5 8,-13 9,-18 3,-11 -4,-17 -12,-12z"/>
    <path class="fil3" d="M555 683c0,-10 -5,-11 -10,-15 -8,-5 -39,-32 -47,-26 -6,11 -3,14 4,19l35 24c9,6 11,8 18,-2z"/>
    <path class="fil3" d="M919 791c11,7 22,3 36,1 16,-2 31,6 30,-15 -7,-7 -5,-5 -15,-4l-42 2c-11,3 -10,4 -9,16z"/>
    <ellipse class="fil2" cx="732" cy="787" rx="128" ry="142"/>
   </g>
  </g>
 </g>
</svg>
