<?xml version="1.0" encoding="UTF-8"?>
<!DOCTYPE svg PUBLIC "-//W3C//DTD SVG 1.1//EN" "http://www.w3.org/Graphics/SVG/1.1/DTD/svg11.dtd">
<!-- Creator: CorelDRAW X8 -->
<svg xmlns="http://www.w3.org/2000/svg" xml:space="preserve" width="14.3932mm" height="14.3932mm" version="1.1" style="shape-rendering:geometricPrecision; text-rendering:geometricPrecision; image-rendering:optimizeQuality; fill-rule:evenodd; clip-rule:evenodd"
viewBox="0 0 1439 1439"
 xmlns:xlink="http://www.w3.org/1999/xlink">
 <defs>
  <style type="text/css">
   <![CDATA[
    .fil2 {fill:#00A859}
    .fil5 {fill:#00AFEF}
    .fil9 {fill:#0D9681}
    .fil10 {fill:#0E8DAB}
    .fil3 {fill:#14748A}
    .fil0 {fill:#373435}
    .fil7 {fill:#9C6144}
    .fil6 {fill:#AF7653}
    .fil8 {fill:#DF2C2C}
    .fil4 {fill:#FCFEFF}
    .fil1 {fill:#373435;fill-rule:nonzero}
   ]]>
  </style>
 </defs>
 <g id="Camada_x0020_1">
  <metadata id="CorelCorpID_0Corel-Layer"/>
  <g id="_2438112981360">
   <g>
    <path class="fil0" d="M0 504l215 -502 158 0 169 0 150 0 130 -1 129 -1 160 0 145 0 183 504 0 0c2,54 -31,76 -70,83 -5,1 -9,2 -14,2l0 850 -1317 0 0 -863 -1 0 0 -1 -1 -1 0 0 -1 0 -1 0 0 -1 -1 -1 -1 0 0 0 -1 -1 -1 -1 0 0 -1 -1 0 0 -1 -1 -1 0 0 0 -1 -1 -1 -1 -1 -1 0 0 -1 -1 -1 -1 0 0 0 -1 -1 -1 0 0 -1 0 -1 -1 0 0 -1 -1 0 -1 0 0 -1 -1 -1 -1 0 0 -1 -1 0 0 0 -1 -1 -1 0 0 -1 -1 0 -1 0 -1 -1 -1 0 0 0 0 -1 -2 0 0 -1 -1 0 -1 -1 0 0 -1 0 -1 -1 0 0 -2 0 0 -1 0 0 -2 0 0 -1 -1 0 -2 0 0 -1 -1 0 -1 0 0 -1 -2 0 0 0 -1c0,-1 -1,-2 -1,-4l0 0 0 0 0 -1 -1 -1 0 0 0 -3 0 -2 -1 0 0 0 0 -2 0 -1 0 -1 0 -1 0 0 0 -2 -1 -1 0 0 0 -2 0 -1 0 0 0 -2 0 0 0 -1 0 -2z"/>
    <path id="1" class="fil1" d="M220 4l-215 502 -10 -4 215 -503 5 -3 5 8zm-10 -5l1 -3 4 0 -5 3zm163 8l-158 0 0 -11 158 0 0 11 0 0zm0 0l0 0 0 0 0 0zm169 0l-169 0 0 -11 169 0 0 0 0 11zm0 -11l0 0 0 0 0 0zm150 12l-150 -1 0 -11 150 1 0 11 0 0zm0 0l0 0 0 0 0 0zm130 -1l-130 1 0 -11 130 -1 0 11 0 0zm0 0l0 0 0 0 0 0zm129 -1l-129 1 0 -11 129 -1 0 0 0 11zm0 -11l0 0 0 0 0 0zm160 11l-160 0 0 -11 160 0 0 11zm0 0l0 0 0 0 0 0zm145 0l-145 0 0 -11 145 -1 5 4 -5 8zm0 -12l4 0 1 4 -5 -4zm178 512l-183 -504 10 -4 183 504 -5 7 -5 -3zm5 3l-4 0 -1 -3 5 3zm0 0l0 0 0 -11 0 0 6 5 -6 6zm0 -11l5 0 1 5 -6 -5zm-69 94l-3 -10 1 0 3 -1 4 -1 3 -1 3 -1 4 -1 3 -1 3 -1 3 -2 3 -1 3 -2 3 -1 3 -2 2 -2 3 -2 2 -2 3 -2 2 -2 2 -3 2 -2 2 -3 1 -3 2 -3 1 -3 2 -3 1 -4 1 -3 0 -4 1 -4 0 -4 1 -5 0 -4 0 -5 11 -1 0 6 0 5 -1 5 0 4 -1 5 -1 4 -1 4 -1 4 -2 4 -1 4 -2 4 -2 3 -2 3 -3 3 -2 3 -3 3 -2 2 -3 3 -3 2 -3 2 -3 2 -4 2 -3 2 -3 2 -4 1 -3 1 -4 2 -3 1 -4 1 -4 1 -4 1 -3 0 0 0zm-3 -10l1 0 -1 0 0 0zm-6 7l-11 0 5 -5 0 0 1 0 0 0 0 0 1 0 0 -1 1 0 0 0 0 0 1 0 0 0 1 0 0 0 0 0 1 0 0 0 1 0 0 0 0 0 1 0 0 -1 0 0 1 0 0 0 1 0 0 0 0 0 1 0 0 0 1 0 0 0 0 0 3 10 -1 0 0 1 -1 0 0 0 0 0 -1 0 0 0 -1 0 0 0 0 0 -1 0 0 0 -1 0 0 1 -1 0 0 0 0 0 -1 0 0 0 -1 0 0 0 0 0 -1 0 0 0 -1 0 0 0 -1 0 0 1 -1 0 0 0 0 0 -1 0 5 -6zm-11 0l0 -4 5 -1 -5 5zm0 850l0 -850 11 0 0 850 -6 6 -5 -6zm11 0l0 6 -6 0 6 -6zm-1323 -5l1317 0 0 11 -1317 0 -6 -6 6 -5zm0 11l-6 0 0 -6 6 6zm5 -869l0 863 -11 0 0 -863 8 -5 3 5zm-3 -5l3 2 0 3 -3 -5zm0 0l0 0 -5 10 0 -1 -1 0 6 -9zm-5 9l0 0 -1 0 1 0zm5 -9l0 0 -6 9 0 0 6 -10 0 1zm0 -1l0 1 0 0 0 -1zm-1 0l1 0 -6 10 -1 -1 5 -10 1 1zm-1 -1l0 1 1 0 -1 -1zm0 0l0 0 -5 10 0 0 -1 0 6 -10zm-5 10l0 0 -1 0 1 0zm5 -10l1 1 -7 9 -1 -1 0 0 7 -9zm-7 9l0 0 1 0 -1 0zm7 -9l0 0 -7 9 0 0 6 -9 1 0zm-1 0l1 0 -1 0 0 0zm0 -1l0 1 -6 9 -1 -1 0 0 7 -9zm-7 9l0 0 0 1 0 -1zm6 -9l1 1 -7 8 -1 0 0 0 7 -9zm-7 9l0 0 0 0 0 0zm6 -10l1 1 -7 9 0 -1 0 0 6 -9zm-6 9l0 0 0 0 0 0zm6 -9l0 0 -6 9 -1 0 7 -9 0 0zm0 0l0 0 0 0 0 0zm-1 -1l1 1 -7 9 -1 -1 0 0 7 -9zm-7 9l0 0 0 0 0 0zm7 -9l0 1 -7 8 0 0 7 -9 0 0zm0 0l0 0 0 0 0 0zm-1 0l1 0 -7 9 -1 -1 0 0 7 -8zm-7 8l0 0 0 0 0 0zm6 -9l1 1 -7 8 -1 -1 7 -8 0 0zm0 0l0 0 0 0 0 0zm0 0l0 0 -7 9 0 -1 0 0 7 -8zm-7 8l0 0 0 0 0 0zm6 -9l1 1 -7 8 -1 0 0 0 7 -9zm-7 9l0 0 0 0 0 0zm7 -9l0 0 -7 9 0 -1 0 0 7 -8zm-7 8l0 0 -1 0 1 0zm6 -9l1 1 -7 8 -1 0 0 0 7 -9zm-7 9l0 0 0 0 0 0zm7 -9l0 0 -7 9 -1 -1 0 0 8 -8zm-8 8l0 0 0 0 0 0zm7 -9l1 1 -8 8 -1 -1 0 0 8 -8zm-8 8l0 0 0 0 0 0zm7 -9l1 1 -8 8 -1 -1 0 0 8 -8zm-8 8l0 0 0 0 0 0zm8 -8l0 0 -8 8 0 0 0 0 8 -8zm-8 8l0 0 0 0 0 0zm7 -9l1 1 -8 8 -1 -1 0 0 8 -8zm-8 8l0 0 1 0 -1 0zm7 -9l1 1 -8 8 -1 -1 8 -8 0 0zm0 0l0 0 0 0 0 0zm0 0l0 0 -7 8 0 0 -1 0 8 -8zm-7 8l-1 0 0 0 1 0zm7 -8l0 0 -8 8 0 -1 8 -7 0 0zm0 0l0 0 0 0 0 0zm-1 -1l1 1 -8 7 -1 -1 -1 -1 9 -6zm-8 7l-1 0 0 -1 1 1zm9 -6l0 0 -10 5 0 0 9 -6 1 1zm-1 -1l0 0 1 1 -1 -1zm-1 -1l1 1 -8 7 -1 -1 8 -7 0 0zm0 0l0 0 -1 -1 1 1zm-1 -1l1 1 -8 7 -1 -1 0 0 8 -7zm-8 7l0 0 0 0 0 0zm8 -7l1 0 -9 7 0 0 8 -7 0 0zm0 0l0 0 0 0 0 0zm0 -1l0 1 -8 7 -1 -1 0 0 9 -7zm-9 7l0 0 0 0 0 0zm8 -7l1 0 -9 7 0 0 8 -7 0 0zm0 0l0 0 1 0 -1 0zm0 -1l0 1 -8 7 -1 -1 0 0 9 -7zm-9 7l0 0 0 0 0 0zm8 -8l1 1 -9 7 -1 -1 0 0 9 -7zm-9 7l0 0 0 0 0 0zm9 -8l0 1 -9 7 0 -1 0 0 9 -7zm-9 7l0 0 0 0 0 0zm9 -6l0 0 -9 6 0 0 9 -7 0 1zm0 -1l0 1 0 0 0 -1zm-1 -1l1 1 -9 7 -1 -1 9 -7 0 0zm0 0l0 0 0 0 0 0zm0 0l0 0 -9 7 0 0 0 0 9 -7zm-9 7l0 0 0 0 0 0zm8 -8l1 1 -9 7 -1 -1 0 0 9 -7zm-9 7l0 0 0 0 0 0zm9 -7l0 0 -9 7 0 -1 -1 0 10 -6zm-9 6l0 0 -1 0 1 0zm9 -6l0 0 -10 6 0 0 0 0 10 -6zm-10 6l0 0 -1 -2 1 2zm9 -7l1 1 -10 6 0 -1 0 -1 9 -5zm-9 6l0 -1 0 1 0 0zm8 -7l1 1 -9 5 -1 0 0 0 9 -6zm-9 6l0 0 0 0 0 0zm9 -6l1 0 -10 6 0 -1 9 -5 0 0zm0 0l0 0 0 -1 0 1zm0 -2l0 2 -9 5 -1 -1 0 0 10 -6zm-1 0l1 0 -10 6 0 0 0 0 9 -6zm-9 6l0 0 0 0 0 0zm9 -6l0 0 -9 6 0 -1 0 0 9 -5zm-9 5l0 0 -1 -1 1 1zm8 -7l1 2 -9 5 -1 -1 0 0 9 -6zm-9 6l0 0 0 0 0 0zm10 -5l0 0 -10 5 0 -1 9 -5 1 1zm-1 -1l0 0 1 1 -1 -1zm0 -1l0 1 -9 6 -1 -1 0 0 10 -6zm-10 6l0 0 0 0 0 0zm9 -7l1 1 -10 6 0 -1 0 -1 9 -5zm-9 6l0 -1 0 0 0 1zm9 -5l1 0 -10 4 0 0 9 -5 0 1zm0 -1l0 1 0 0 0 -1zm0 -1l0 1 -9 5 -1 -1 0 0 10 -5zm-10 5l0 0 0 1 0 -1zm9 -5l1 0 -10 5 0 -1 0 0 9 -4zm-9 4l0 0 0 0 0 0zm9 -5l1 1 -10 4 -1 0 10 -5 0 0zm0 0l0 0 1 1 -1 -1zm0 -1l0 1 -10 5 0 -1 10 -5 0 0zm0 0l0 0 -1 -2 1 2zm0 0l0 0 -10 5 0 -1 0 0 10 -4zm-10 4l0 0 0 0 0 0zm10 -4l0 0 -10 4 -1 0 11 -5 0 1zm0 -1l0 1 0 0 0 -1zm-1 -1l1 1 -11 5 0 -2 10 -4 0 0zm0 0l0 0 0 -1 0 1zm0 -1l0 1 -10 4 0 0 0 0 10 -5zm-10 5l0 0 0 0 0 0zm9 -5l1 1 -10 4 -1 -1 0 0 10 -4zm-10 4l0 0 -1 -3 1 3zm10 -6l0 2 -10 4 0 -2 10 -4 0 0zm0 0l0 0 0 0 0 0zm0 0l0 0 -10 5 0 0 0 -1 10 -4zm-10 5l0 0 0 -1 0 1zm10 -6l0 2 -10 3 -1 -1 0 0 11 -4zm-11 4l0 0 0 0 0 0zm10 -4l1 0 -11 4 0 -1 10 -4 0 1zm0 -1l0 1 0 0 0 -1zm0 0l0 0 -10 4 0 0 0 0 10 -4zm-10 4l0 0 0 0 0 0zm10 -6l0 2 -10 4 -1 -2 0 0 11 -4zm-11 4l0 0 0 0 0 0zm11 -4l0 1 -11 3 0 -1 11 -3 0 0zm0 0l0 0 0 0 0 0zm-1 0l1 0 -11 4 0 -1 10 -3 0 0zm0 0l0 0 0 -1 0 1zm-11 0l10 -5 0 1 0 0 0 0 0 0 0 1 0 0 0 0 1 0 0 0 0 0 0 0 0 0 0 0 0 1 0 0 0 0 0 0 0 0 0 0 0 0 0 0 0 0 0 1 0 0 0 0 0 0 0 0 0 0 0 0 0 0 0 1 0 0 0 0 -10 3 0 0 0 0 0 0 0 -1 0 0 0 0 0 0 0 0 0 0 0 0 -1 0 0 -1 0 0 0 0 0 0 0 0 0 0 0 0 0 -1 0 0 0 0 0 0 0 0 0 0 0 0 0 0 0 -1 0 0 0 0 0 0 0 0 0 0 0 1zm10 -5l0 0 0 1 0 -1zm0 0l0 0 -10 5 0 0 0 -1 10 -4zm-10 5l0 -1 0 0 0 1zm10 -4l0 0 -10 3 0 0 0 0 10 -3zm-10 3l0 0 0 -1 0 1zm10 -4l0 1 -10 3 -1 -2 0 0 11 -2zm-11 2l0 0 0 0 0 0zm11 -3l0 1 -11 2 0 -1 0 0 11 -2zm-11 2l0 0 0 0 0 0zm11 -3l0 1 -11 2 0 0 0 0 11 -3zm-11 3l0 0 0 -1 0 1zm10 -5l1 3 -11 2 0 -2 0 -1 10 -2zm-10 3l0 -1 0 0 0 1zm10 -5l0 2 -10 2 -1 -2 0 0 11 -2zm-11 2l0 0 0 1 0 -1zm11 -2l0 1 -11 1 0 0 0 0 11 -2zm-11 2l0 0 0 -1 0 1zm11 -2l0 0 -11 2 0 0 0 -1 11 -1zm-11 2l0 -1 0 1 0 0zm11 -4l0 2 -11 1 0 -2 0 0 11 -1zm-11 1l0 1 0 -1 0 0zm10 -1l1 0 -11 1 0 0 0 0 10 -1zm-10 1l0 0 0 0 0 0zm10 -3l0 2 -10 1 -1 -1 0 0 11 -2zm-11 2l0 0 1 1 -1 -1zm11 -3l0 1 -11 2 0 -1 0 -1 11 -1zm-11 2l0 -1 0 0 0 1zm11 -2l0 0 -11 1 0 0 11 -1 0 0zm0 0l0 0 0 0 0 0zm0 -1l0 1 -11 1 0 -1 0 0 11 -1zm0 -1l0 1 -11 1 0 -1 0 0 11 -1zm-11 1l0 0 0 0 0 0zm11 -2l0 1 -11 1 0 -1 0 0 11 -1zm-11 1l0 0 0 1 0 -1zm11 -2l0 1 -11 1 0 -1 0 0 11 -1zm-11 1l0 0 0 0 0 0zm11 -2l0 1 -11 1 0 -1 0 0 11 -1zm-11 1l0 0 0 -1 0 1zm11 -2l0 1 -11 1 0 -1 0 0 11 -1zm-11 1l0 0 0 0 0 0zm11 -2l0 1 -11 1 0 -2 11 0 0 0zm0 0l0 0 0 0 0 0zm0 -1l0 1 -11 0 0 0 0 0 11 -1zm-11 1l0 0 0 0 0 0zm11 -2l0 2 -11 0 0 -1 0 0 11 -1zm-11 1l0 0 0 0 0 0zm10 -2l1 1 -11 1 0 -2 0 -2 10 2zm-10 0l-1 -1 1 -1 0 2z"/>
   </g>
   <path class="fil0" d="M49 519l200 -469 148 0 157 0 140 1 121 -1 120 -1 150 0 135 0 171 469 0 0c2,57 -37,75 -78,80l0 793 -1229 0 0 -806 -1 0 0 0 -1 -1 0 0 -1 0 0 -1 -1 0 -1 -1 -1 0 0 0 -1 -1 0 0 -1 -1 -1 -1 0 0 -1 0 0 -1 0 0 -1 -1 -1 -1 -1 -1 0 0 -1 0 -1 -1 0 0 0 -1 -1 -1 0 0 -1 -1 0 0 -1 -1 0 -1 -1 0 0 0 -1 -1 0 -1 0 0 -1 -1 0 0 -1 -1 0 -1 0 0 -1 -1 0 -1 -1 0 0 -1 0 -1 -1 0 0 -1 -1 0 0 -1 -1 -1 0 0 0 -1 0 -1 -1 -1 0 -1 0 0 0 0 -1 -2 0 0 -1 -1 0 -1 0 0 0 -1 -1 -1 0 -1 0 -1 0 0 -1 -1c0,-1 0,-2 -1,-4l0 0 0 0 0 -1 0 -1 0 0 -1 -2 0 -2 0 -1 0 0 0 -2 0 0 -1 -1 0 -1 0 0 0 -2 0 -1 0 0 0 -2 0 0 0 -1 0 -2 0 0 0 -1 0 -1z"/>
   <polygon id="_287063336" class="fil2" points="1186,522 1385,520 1216,54 1082,54 "/>
   <polygon id="_287062616" class="fil3" points="1004,524 1186,522 1082,54 934,54 "/>
   <rect id="_287064704" class="fil3" x="89" y="550" width="1219" height="836"/>
   <path id="_287064056" class="fil4" d="M134 522c-1,167 -1,414 -1,581 72,-7 49,-9 87,-63 -1,-115 -2,-229 -2,-344 197,0 394,-1 591,-1 1,65 2,131 3,197 2,193 5,156 -38,172 -76,3 -12,-5 -39,24 15,22 29,45 44,67 0,56 1,112 2,168l134 0 305 0c21,0 43,0 64,0l-7 -801 -1143 0z"/>
   <polygon id="_287064368" class="fil5" points="929,992 1151,992 1221,990 1221,696 1151,695 929,695 "/>
   <polygon id="_287064008" class="fil2" points="54,520 248,524 399,56 252,55 "/>
   <polygon id="_287064176" class="fil5" points="1220,1323 1221,1062 931,1059 935,1323 "/>
   <polygon id="_287064272" class="fil3" points="248,524 435,524 555,56 399,56 "/>
   <polygon id="_287063840" class="fil2" points="435,524 634,522 637,501 694,56 555,56 "/>
   <polygon id="_287063072" class="fil2" points="815,522 1004,524 934,54 814,55 "/>
   <polygon id="_287063288" class="fil3" points="634,522 815,522 814,55 694,56 "/>
   <path id="_287063480" class="fil6" d="M114 1174l-2 54 644 -7 0 84 -641 0 1 35c117,-9 604,19 665,-17l-2 -168c-137,56 -484,-2 -665,19z"/>
   <polygon id="_287063552" class="fil7" points="115,1309 758,1309 758,1219 112,1225 "/>
   <path id="_287063744" class="fil8" d="M146 601c48,1 104,-10 102,-77 -60,-1 -134,-3 -194,-4 1,55 43,82 92,81z"/>
   <path id="_287063672" class="fil9" d="M146 601c48,1 104,-10 102,-77 -60,-1 -134,-3 -194,-4 1,55 43,82 92,81z"/>
   <path id="_287062328" class="fil10" d="M339 603c46,0 99,-12 97,-79 -58,0 -130,0 -188,0 2,55 42,81 91,79z"/>
   <path id="_287062928" class="fil10" d="M721 601c44,0 95,-12 93,-79 -55,0 -124,0 -180,0 2,55 41,81 87,79z"/>
   <path id="_287062496" class="fil9" d="M532 602c49,0 105,-13 102,-80 -61,1 -137,1 -198,2 2,55 45,80 96,78z"/>
   <path id="_287062808" class="fil9" d="M905 602c47,1 101,-11 99,-78 -58,-1 -131,-2 -190,-2 2,55 42,81 91,80z"/>
   <path id="_287062832" class="fil10" d="M1092 600c45,0 96,-13 93,-81 -56,1 -125,2 -181,2 2,55 42,81 88,79z"/>
   <path id="_287061848" class="fil9" d="M1282 600c50,0 106,-13 103,-80 -62,0 -138,1 -200,1 3,55 46,81 97,79z"/>
   <rect id="_287061536" class="fil5" x="198" y="692" width="617" height="426"/>
   <path id="_287062088" class="fil9" d="M220 1041c-65,96 -71,46 -88,68 -13,16 -13,46 -18,71 181,-21 529,34 665,-24 0,0 0,-1 0,-1 -10,-24 -23,-42 -44,-64 -89,-70 -106,-38 -189,-14 -43,12 -163,0 -194,-35 -43,-36 -87,-42 -132,-1z"/>
  </g>
 </g>
</svg>
