<?xml version="1.0" encoding="UTF-8"?>
<!DOCTYPE svg PUBLIC "-//W3C//DTD SVG 1.1//EN" "http://www.w3.org/Graphics/SVG/1.1/DTD/svg11.dtd">
<!-- Creator: CorelDRAW -->
<svg xmlns="http://www.w3.org/2000/svg" xml:space="preserve" width="184px" height="142px" style="shape-rendering:geometricPrecision; text-rendering:geometricPrecision; image-rendering:optimizeQuality; fill-rule:evenodd; clip-rule:evenodd"
viewBox="0 0 184 142"
 xmlns:xlink="http://www.w3.org/1999/xlink">
 <defs>
  <style type="text/css">
   <![CDATA[
    .fil1 {fill:#6699FF}
    .fil53 {fill:white}
    .fil27 {fill:#006CB5}
    .fil28 {fill:#006EB6}
    .fil29 {fill:#0070B7}
    .fil30 {fill:#0071B9}
    .fil31 {fill:#0073BA}
    .fil32 {fill:#0075BB}
    .fil33 {fill:#0076BD}
    .fil34 {fill:#0078BE}
    .fil35 {fill:#0079C0}
    .fil36 {fill:#007BC1}
    .fil37 {fill:#007DC2}
    .fil38 {fill:#007FC4}
    .fil39 {fill:#0080C5}
    .fil40 {fill:#0082C7}
    .fil41 {fill:#0084C9}
    .fil42 {fill:#0086CA}
    .fil43 {fill:#0088CC}
    .fil44 {fill:#0089CD}
    .fil45 {fill:#008BCF}
    .fil46 {fill:#008DD1}
    .fil47 {fill:#008FD2}
    .fil48 {fill:#0091D4}
    .fil49 {fill:#0092D5}
    .fil50 {fill:#0094D7}
    .fil51 {fill:#0098DA}
    .fil25 {fill:#0169B2}
    .fil26 {fill:#016AB3}
    .fil24 {fill:#0267B1}
    .fil23 {fill:#0366AF}
    .fil22 {fill:#0864AE}
    .fil21 {fill:#0D62AD}
    .fil20 {fill:#1360AB}
    .fil19 {fill:#195FAA}
    .fil18 {fill:#1E5DA9}
    .fil17 {fill:#215BA8}
    .fil16 {fill:#2459A6}
    .fil15 {fill:#2758A5}
    .fil14 {fill:#2A55A3}
    .fil13 {fill:#2C54A2}
    .fil12 {fill:#2F52A1}
    .fil11 {fill:#3150A0}
    .fil10 {fill:#334E9E}
    .fil9 {fill:#344C9D}
    .fil8 {fill:#364B9C}
    .fil7 {fill:#37499B}
    .fil6 {fill:#39479A}
    .fil5 {fill:#3A4599}
    .fil4 {fill:#3C4398}
    .fil3 {fill:#3D4197}
    .fil2 {fill:#3E4095}
    .fil54 {fill:white;fill-rule:nonzero}
    .fil0 {fill:url(#id1)}
    .fil52 {fill:url(#id2)}
   ]]>
  </style>
     <clipPath id="id0">
      <path d="M109.185 4.74333c39.0781,0 70.7578,29.8867 70.7578,66.7526 0,36.8659 -31.6797,66.7526 -70.7578,66.7526 -39.0781,0 -70.7566,-29.8867 -70.7566,-66.7526 0,-36.8659 31.6785,-66.7526 70.7566,-66.7526z"/>
     </clipPath>
  <linearGradient id="id1" gradientUnits="userSpaceOnUse" x1="189.316" y1="37.8734" x2="28.4198" y2="104.125">
   <stop offset="0" style="stop-color:#3E4095"/>
   <stop offset="1" style="stop-color:#91D8F7"/>
  </linearGradient>
  <linearGradient id="id2" gradientUnits="userSpaceOnUse" x1="28.1611" y1="142.008" x2="71.8881" y2="98.2811">
   <stop offset="0" style="stop-color:#00A859"/>
   <stop offset="1" style="stop-color:#A8CF45"/>
  </linearGradient>
 </defs>
 <g id="Layer_x0020_1">
  <metadata id="CorelCorpID_0Corel-Layer"/>
  <g id="_230731960">
   <ellipse id="_230732848" class="fil0" cx="108.868" cy="70.9995" rx="75.2937" ry="71.0318"/>
   <path id="_230733328" class="fil1" d="M7.59216 106.811l85.4826 0c4.26616,0 7.75515,2.43544 7.75515,5.41302l0 16.2402c0,2.97757 -3.48899,5.41302 -7.75515,5.41302l-85.4826 0c-4.26498,0 -7.75397,-2.43544 -7.75397,-5.41302l0 -16.2402c0,-2.97757 3.48899,-5.41302 7.75397,-5.41302z"/>
   <g>
    <g style="clip-path:url(#id0)">
     <polygon id="_230732920" class="fil2" points="38.4285,-118.852 301.643,-118.852 301.643,144.362 38.4285,144.362 38.4285,-118.852 43.6939,-113.587 296.378,-113.587 296.378,139.097 43.6939,139.097 43.6939,-113.587 "/>
     <polygon id="_2307329201" class="fil3" points="41.0612,-116.22 299.01,-116.22 299.01,141.729 41.0612,141.729 41.0612,-116.22 46.3266,-110.954 293.745,-110.954 293.745,136.464 46.3266,136.464 46.3266,-110.954 "/>
     <polygon id="_23073292012" class="fil4" points="43.6939,-113.587 296.378,-113.587 296.378,139.097 43.6939,139.097 43.6939,-113.587 48.9581,-108.323 291.113,-108.323 291.113,133.832 48.9581,133.832 48.9581,-108.323 "/>
     <polygon id="_230732920123" class="fil5" points="46.3254,-110.956 293.746,-110.956 293.746,136.465 46.3254,136.465 46.3254,-110.956 51.5908,-105.69 288.481,-105.69 288.481,131.2 51.5908,131.2 51.5908,-105.69 "/>
     <polygon id="_2307329201234" class="fil6" points="48.9581,-108.323 291.113,-108.323 291.113,133.832 48.9581,133.832 48.9581,-108.323 54.2223,-103.059 285.849,-103.059 285.849,128.568 54.2223,128.568 54.2223,-103.059 "/>
     <polygon id="_23073292012345" class="fil7" points="51.5896,-105.691 288.482,-105.691 288.482,131.201 51.5896,131.201 51.5896,-105.691 56.855,-100.426 283.217,-100.426 283.217,125.936 56.855,125.936 56.855,-100.426 "/>
     <polygon id="_230732920123456" class="fil8" points="54.2223,-103.059 285.849,-103.059 285.849,128.568 54.2223,128.568 54.2223,-103.059 59.4865,-97.7945 280.585,-97.7945 280.585,123.304 59.4865,123.304 59.4865,-97.7945 "/>
     <polygon id="_2307329201234567" class="fil9" points="56.8538,-100.427 283.218,-100.427 283.218,125.937 56.8538,125.937 56.8538,-100.427 62.1192,-95.1618 277.952,-95.1618 277.952,120.671 62.1192,120.671 62.1192,-95.1618 "/>
     <polygon id="_23073292012345678" class="fil10" points="59.4865,-97.7945 280.585,-97.7945 280.585,123.304 59.4865,123.304 59.4865,-97.7945 64.7507,-92.5303 275.321,-92.5303 275.321,118.04 64.7507,118.04 64.7507,-92.5303 "/>
     <polygon id="_230732920123456789" class="fil11" points="62.118,-95.163 277.954,-95.163 277.954,120.673 62.118,120.673 62.118,-95.163 67.3834,-89.8976 272.688,-89.8976 272.688,115.407 67.3834,115.407 67.3834,-89.8976 "/>
     <polygon id="_23073292012345678910" class="fil12" points="64.7507,-92.5303 275.321,-92.5303 275.321,118.04 64.7507,118.04 64.7507,-92.5303 70.0149,-87.2661 270.057,-87.2661 270.057,112.776 70.0149,112.776 70.0149,-87.2661 "/>
     <polygon id="_2307329201234567891011" class="fil13" points="67.3822,-89.8988 272.689,-89.8988 272.689,115.408 67.3822,115.408 67.3822,-89.8988 72.6476,-84.6334 267.424,-84.6334 267.424,110.143 72.6476,110.143 72.6476,-84.6334 "/>
     <polygon id="_230732920123456789101112" class="fil14" points="70.0149,-87.2661 270.057,-87.2661 270.057,112.776 70.0149,112.776 70.0149,-87.2661 75.2802,-82.0007 264.791,-82.0007 264.791,107.51 75.2802,107.51 75.2802,-82.0007 "/>
     <polygon id="_23073292012345678910111213" class="fil15" points="72.6476,-84.6334 267.424,-84.6334 267.424,110.143 72.6476,110.143 72.6476,-84.6334 77.9118,-79.3692 262.16,-79.3692 262.16,104.879 77.9118,104.879 77.9118,-79.3692 "/>
     <polygon id="_2307329201234567891011121314" class="fil16" points="75.2791,-82.0019 264.792,-82.0019 264.792,107.511 75.2791,107.511 75.2791,-82.0019 80.5444,-76.7365 259.527,-76.7365 259.527,102.246 80.5444,102.246 80.5444,-76.7365 "/>
     <polygon id="_230732920123456789101112131415" class="fil17" points="77.9118,-79.3692 262.16,-79.3692 262.16,104.879 77.9118,104.879 77.9118,-79.3692 83.1759,-74.105 256.896,-74.105 256.896,99.6146 83.1759,99.6146 83.1759,-74.105 "/>
     <polygon id="_23073292012345678910111213141516" class="fil18" points="80.5433,-76.7377 259.528,-76.7377 259.528,102.247 80.5433,102.247 80.5433,-76.7377 85.8086,-71.4724 254.263,-71.4724 254.263,96.9819 85.8086,96.9819 85.8086,-71.4724 "/>
     <polygon id="_2307329201234567891011121314151617" class="fil19" points="83.1759,-74.105 256.896,-74.105 256.896,99.6146 83.1759,99.6146 83.1759,-74.105 88.4401,-68.8408 251.631,-68.8408 251.631,94.3504 88.4401,94.3504 88.4401,-68.8408 "/>
     <polygon id="_230732920123456789101112131415161718" class="fil20" points="85.8075,-71.4735 254.264,-71.4735 254.264,96.9831 85.8075,96.9831 85.8075,-71.4735 91.0728,-66.2082 248.999,-66.2082 248.999,91.7177 91.0728,91.7177 91.0728,-66.2082 "/>
     <polygon id="_23073292012345678910111213141516171819" class="fil21" points="88.4401,-68.8408 251.631,-68.8408 251.631,94.3504 88.4401,94.3504 88.4401,-68.8408 93.7032,-63.5767 246.367,-63.5767 246.367,89.0862 93.7032,89.0862 93.7032,-63.5767 "/>
     <polygon id="_2307329201234567891011121314151617181920" class="fil22" points="91.0716,-66.2093 249,-66.2093 249,91.7189 91.0716,91.7189 91.0716,-66.2093 96.3358,-60.944 243.735,-60.944 243.735,86.4535 96.3358,86.4535 96.3358,-60.944 "/>
     <polygon id="_230732920123456789101112131415161718192021" class="fil23" points="93.7043,-63.5767 246.367,-63.5767 246.367,89.0862 93.7043,89.0862 93.7043,-63.5767 98.9674,-58.3125 241.103,-58.3125 241.103,83.822 98.9674,83.822 98.9674,-58.3125 "/>
     <polygon id="_23073292012345678910111213141516171819202122" class="fil24" points="96.3358,-60.9451 243.736,-60.9451 243.736,86.4547 96.3358,86.4547 96.3358,-60.9451 101.6,-55.6798 238.47,-55.6798 238.47,81.1893 101.6,81.1893 101.6,-55.6798 "/>
     <polygon id="_2307329201234567891011121314151617181920212223" class="fil25" points="98.9685,-58.3125 241.103,-58.3125 241.103,83.822 98.9685,83.822 98.9685,-58.3125 104.232,-53.0483 235.839,-53.0483 235.839,78.5578 104.232,78.5578 104.232,-53.0483 "/>
     <polygon id="_230732920123456789101112131415161718192021222324" class="fil26" points="101.6,-55.6809 238.471,-55.6809 238.471,81.1905 101.6,81.1905 101.6,-55.6809 106.864,-50.4156 233.206,-50.4156 233.206,75.9251 106.864,75.9251 106.864,-50.4156 "/>
     <polygon id="_23073292012345678910111213141516171819202122232425" class="fil27" points="104.233,-53.0483 235.839,-53.0483 235.839,78.5578 104.233,78.5578 104.233,-53.0483 109.497,-47.7829 230.573,-47.7829 230.573,73.2924 109.497,73.2924 109.497,-47.7829 "/>
     <polygon id="_2307329201234567891011121314151617181920212223242526" class="fil28" points="106.865,-50.4156 233.206,-50.4156 233.206,75.9251 106.865,75.9251 106.865,-50.4156 112.128,-45.1514 227.942,-45.1514 227.942,70.6621 112.128,70.6621 112.128,-45.1514 "/>
     <polygon id="_230732920123456789101112131415161718192021222324252627" class="fil29" points="109.497,-47.7841 230.575,-47.7841 230.575,73.2936 109.497,73.2936 109.497,-47.7841 114.761,-42.5187 225.309,-42.5187 225.309,68.0294 114.761,68.0294 114.761,-42.5187 "/>
     <polygon id="_23073292012345678910111213141516171819202122232425262728" class="fil30" points="112.13,-45.1514 227.942,-45.1514 227.942,70.6609 112.13,70.6609 112.13,-45.1514 117.393,-39.8872 222.678,-39.8872 222.678,65.3979 117.393,65.3979 117.393,-39.8872 "/>
     <polygon id="_2307329201234567891011121314151617181920212223242526272829" class="fil31" points="114.761,-42.5199 225.31,-42.5199 225.31,68.0294 114.761,68.0294 114.761,-42.5199 120.025,-37.2545 220.045,-37.2545 220.045,62.7652 120.025,62.7652 120.025,-37.2545 "/>
     <polygon id="_230732920123456789101112131415161718192021222324252627282930" class="fil32" points="117.394,-39.8872 222.678,-39.8872 222.678,65.3967 117.394,65.3967 117.394,-39.8872 122.657,-34.623 217.414,-34.623 217.414,60.1337 122.657,60.1337 122.657,-34.623 "/>
     <polygon id="_23073292012345678910111213141516171819202122232425262728293031" class="fil33" points="120.025,-37.2557 220.046,-37.2557 220.046,62.7652 120.025,62.7652 120.025,-37.2557 125.29,-31.9903 214.781,-31.9903 214.781,57.501 125.29,57.501 125.29,-31.9903 "/>
     <polygon id="_2307329201234567891011121314151617181920212223242526272829303132" class="fil34" points="122.658,-34.623 217.414,-34.623 217.414,60.1325 122.658,60.1325 122.658,-34.623 127.921,-29.3588 212.149,-29.3588 212.149,54.8695 127.921,54.8695 127.921,-29.3588 "/>
     <polygon id="_230732920123456789101112131415161718192021222324252627282930313233" class="fil35" points="125.29,-31.9915 214.782,-31.9915 214.782,57.501 125.29,57.501 125.29,-31.9915 130.554,-26.7261 209.517,-26.7261 209.517,52.2368 130.554,52.2368 130.554,-26.7261 "/>
     <polygon id="_23073292012345678910111213141516171819202122232425262728293031323334" class="fil36" points="127.922,-29.3588 212.149,-29.3588 212.149,54.8683 127.922,54.8683 127.922,-29.3588 133.185,-24.0946 206.885,-24.0946 206.885,49.6053 133.185,49.6053 133.185,-24.0946 "/>
     <polygon id="_2307329201234567891011121314151617181920212223242526272829303132333435" class="fil37" points="130.554,-26.7273 209.518,-26.7273 209.518,52.2368 130.554,52.2368 130.554,-26.7273 135.818,-21.4619 204.252,-21.4619 204.252,46.9726 135.818,46.9726 135.818,-21.4619 "/>
     <polygon id="_230732920123456789101112131415161718192021222324252627282930313233343536" class="fil38" points="133.186,-24.0946 206.885,-24.0946 206.885,49.6041 133.186,49.6041 133.186,-24.0946 138.449,-18.8304 201.621,-18.8304 201.621,44.3411 138.449,44.3411 138.449,-18.8304 "/>
     <polygon id="_23073292012345678910111213141516171819202122232425262728293031323334353637" class="fil39" points="135.818,-21.4631 204.254,-21.4631 204.254,46.9726 135.818,46.9726 135.818,-21.4631 141.082,-16.1977 198.988,-16.1977 198.988,41.7084 141.082,41.7084 141.082,-16.1977 "/>
     <polygon id="_2307329201234567891011121314151617181920212223242526272829303132333435363738" class="fil40" points="138.451,-18.8304 201.621,-18.8304 201.621,44.34 138.451,44.34 138.451,-18.8304 143.715,-13.565 196.356,-13.565 196.356,39.0758 143.715,39.0758 143.715,-13.565 "/>
     <polygon id="_230732920123456789101112131415161718192021222324252627282930313233343536373839" class="fil41" points="141.083,-16.1977 198.988,-16.1977 198.988,41.7073 141.083,41.7073 141.083,-16.1977 146.346,-10.9335 193.724,-10.9335 193.724,36.4443 146.346,36.4443 146.346,-10.9335 "/>
     <polygon id="_23073292012345678910111213141516171819202122232425262728293031323334353637383940" class="fil42" points="143.715,-13.5662 196.357,-13.5662 196.357,39.0758 143.715,39.0758 143.715,-13.5662 148.979,-8.30082 191.091,-8.30082 191.091,33.8116 148.979,33.8116 148.979,-8.30082 "/>
     <polygon id="_2307329201234567891011121314151617181920212223242526272829303132333435363738394041" class="fil43" points="146.347,-10.9335 193.724,-10.9335 193.724,36.4431 146.347,36.4431 146.347,-10.9335 151.61,-5.66932 188.46,-5.66932 188.46,31.1801 151.61,31.1801 151.61,-5.66932 "/>
     <polygon id="_230732920123456789101112131415161718192021222324252627282930313233343536373839404142" class="fil44" points="148.979,-8.302 191.093,-8.302 191.093,33.8116 148.979,33.8116 148.979,-8.302 154.243,-3.03663 185.827,-3.03663 185.827,28.5474 154.243,28.5474 154.243,-3.03663 "/>
     <polygon id="_23073292012345678910111213141516171819202122232425262728293031323334353637383940414243" class="fil45" points="151.612,-5.66932 188.46,-5.66932 188.46,31.1789 151.612,31.1789 151.612,-5.66932 156.875,-0.40512 183.196,-0.40512 183.196,25.9159 156.875,25.9159 156.875,-0.40512 "/>
     <polygon id="_2307329201234567891011121314151617181920212223242526272829303132333435363738394041424344" class="fil46" points="154.243,-3.03781 185.828,-3.03781 185.828,28.5474 154.243,28.5474 154.243,-3.03781 159.507,2.22757 180.563,2.22757 180.563,23.2832 159.507,23.2832 159.507,2.22757 "/>
     <polygon id="_230732920123456789101112131415161718192021222324252627282930313233343536373839404142434445" class="fil47" points="156.876,-0.40512 183.196,-0.40512 183.196,25.9147 156.876,25.9147 156.876,-0.40512 162.139,4.85908 177.931,4.85908 177.931,20.6517 162.139,20.6517 162.139,4.85908 "/>
     <polygon id="_23073292012345678910111213141516171819202122232425262728293031323334353637383940414243444546" class="fil48" points="159.507,2.22639 180.564,2.22639 180.564,23.2832 159.507,23.2832 159.507,2.22639 164.772,7.49176 175.299,7.49176 175.299,18.019 164.772,18.019 164.772,7.49176 "/>
     <polygon id="_2307329201234567891011121314151617181920212223242526272829303132333435363738394041424344454647" class="fil49" points="162.14,4.85908 177.931,4.85908 177.931,20.6505 162.14,20.6505 162.14,4.85908 167.403,10.1233 172.667,10.1233 172.667,15.3875 167.403,15.3875 167.403,10.1233 "/>
     <polygon id="_230732920123456789101112131415161718192021222324252627282930313233343536373839404142434445464748" class="fil50" points="164.772,7.49058 175.3,7.49058 175.3,18.019 164.772,18.019 164.772,7.49058 170.036,12.756 170.035,12.756 170.035,12.7548 170.036,12.7548 170.036,12.756 "/>
     <polygon id="_23073292012345678910111213141516171819202122232425262728293031323334353637383940414243444546474849" class="fil51" points="167.404,10.1233 172.667,10.1233 172.667,15.3863 167.404,15.3863 167.404,10.1233 "/>
    </g>
   </g>
   <path class="fil52" d="M10.1268 109.746l79.7956 0c3.98151,0 7.23901,1.87087 7.23901,4.15868l0 12.4784c0,2.28781 -3.25749,4.15986 -7.23901,4.15986l-79.7956 0c-3.98151,0 -7.23901,-1.87206 -7.23901,-4.15986l0 -12.4784c0,-2.28781 3.25749,-4.15868 7.23901,-4.15868z"/>
   <path class="fil53" d="M54.2081 98.3201c3.45592,-19.8828 4.43742,-30.9745 7.89452,-50.8573 0.643704,-8.08114 4.49648,-18.2209 12.8351,-17.5253l19.3595 0.513782c5.28191,0.139371 9.18783,0.620081 11.7497,1.84843 2.56891,1.23071 4.42443,3.48781 5.5512,6.81735 1.12914,3.31301 1.26969,7.35948 0.438191,12.1193 -0.728743,4.16813 -2.00788,7.74216 -3.83269,10.7587 -1.8378,3.01773 -3.64017,6.11105 -6.66381,7.34176 -2.26536,0.922445 -4.25671,0.959059 -6.79255,1.44686 -2.87363,0.553939 -1.6252,2.82521 -0.604727,4.2827 5.37758,7.67484 7.65712,17.7934 9.43705,26.4745 1.01221,6.44058 -13.8638,8.54413 -15.9355,-0.310631 -1.8319,-5.77207 -6.68625,-22.5273 -12.4123,-26.2785 -1.76694,10.1245 -3.43466,15.7064 -5.20396,25.8355 -2.93033,10.1776 -17.5052,7.1209 -15.8198,-2.46733zm26.1603 -37.5273l4.52955 0c0.771263,0 2.33151,-0.331891 4.68427,-1.01221 1.18583,-0.312993 2.24765,-1.09843 3.18545,-2.35395 0.925988,-1.25552 1.53898,-2.70237 1.82481,-4.34175 0.424018,-2.42363 0.181891,-4.27207 -0.722838,-5.56183 -0.901185,-1.30867 -2.90789,-1.95355 -6.01538,-1.95355 -1.4504,0 -2.9008,0 -4.35002,0 -3.00474,0.0614176 -3.08033,0.251576 -3.50553,2.10473 -0.611814,3.5008 -1.22363,7.0016 -1.83544,10.5024 -0.0141733,0.055512 -0.0354332,0.107481 -0.0401577,0.164174 -0.181891,1.90867 0.0129922,2.45198 2.24529,2.45198z"/>
   <path class="fil53" d="M123.207 32.1179c13.1504,-0.122835 21.8694,-0.246851 35.0198,-0.370868 12.5859,1.25315 5.64687,11.8276 0.20315,20.1863 -10.6406,16.7859 -12.5197,19.9548 -22.5532,33.7017 -2.46851,3.31655 -2.06812,6.03546 2.24174,6.25042 2.01143,0.100394 11.6504,-0.055512 20.7946,0.125197 7.53547,0.252757 8.14137,14.9434 -3.25868,15.3568 -15.3308,0.145276 -26.3446,0.290552 -41.6754,0.434648 -3.34372,-0.151182 -6.28349,-1.58032 -5.96577,-4.99727 0.360238,-3.87285 3.62128,-8.4024 5.27601,-10.3193l25.9017 -37.8096c2.5004,-2.17088 3.09214,-6.39806 -1.11969,-6.27404 -4.71026,0.139371 -11.2571,0.718113 -18.5717,0.198426 -7.40672,-0.622444 -6.22444,-17.0788 3.7075,-16.4824z"/>
   <path class="fil54" d="M4.63703 122.428l1.66536 -0.141733c-0.142914,0.648428 -0.142914,1.17993 -0.00236221,1.59686 0.140552,0.41575 0.462994,0.751184 0.964965,1.00748 0.503152,0.2563 1.12441,0.38386 1.86024,0.38386 0.655515,0 1.26378,-0.0968508 1.82954,-0.290552 0.566932,-0.196064 1.03111,-0.461813 1.38898,-0.79961 0.359057,-0.34134 0.605908,-0.709846 0.741735,-1.11024 0.135827,-0.407482 0.137008,-0.760633 0.00118111,-1.06536 -0.132284,-0.305907 -0.43701,-0.558664 -0.908272,-0.764176 -0.304726,-0.135827 -1.0004,-0.347246 -2.09647,-0.634255 -1.09252,-0.285828 -1.8378,-0.55512 -2.22993,-0.807877 -0.510238,-0.323623 -0.836224,-0.727562 -0.980319,-1.20827 -0.140552,-0.47953 -0.111024,-1.01693 0.0897642,-1.61457 0.219686,-0.651971 0.609451,-1.26378 1.17048,-1.8319 0.563388,-0.570475 1.25197,-1.00158 2.06339,-1.29804 0.813783,-0.292915 1.65355,-0.440553 2.52639,-0.440553 0.962603,0 1.75631,0.153544 2.3882,0.465356 0.62953,0.307088 1.04174,0.762995 1.23544,1.36418 0.190158,0.600003 0.174804,1.28268 -0.0496065,2.04332l-1.68662 0.124016c0.184253,-0.818507 0.0933075,-1.43977 -0.276379,-1.8567 -0.369687,-0.419293 -1.05119,-0.628349 -2.04686,-0.628349 -1.03819,0 -1.8567,0.190158 -2.46143,0.570475 -0.601184,0.380317 -0.993311,0.839767 -1.17284,1.37363 -0.157087,0.467719 -0.11693,0.851578 0.11693,1.1504 0.231497,0.301182 0.987406,0.609451 2.27718,0.923626 1.28741,0.316537 2.15198,0.591735 2.59253,0.826775 0.636617,0.349608 1.04646,0.790161 1.22717,1.32166 0.180709,0.535042 0.151182,1.1504 -0.0814964,1.84489 -0.232678,0.690948 -0.646066,1.33938 -1.24725,1.94883 -0.600003,0.610633 -1.32638,1.08426 -2.18032,1.4256 -0.85276,0.337797 -1.74331,0.506695 -2.66694,0.506695 -1.17402,0 -2.10119,-0.168898 -2.7756,-0.513782 -0.679137,-0.340159 -1.12914,-0.853941 -1.35001,-1.54135 -0.219686,-0.686223 -0.197245,-1.46457 0.0732287,-2.33032z"/>
   <path id="1" class="fil54" d="M19.4422 115.462l0.615357 -1.8319 1.59331 0 -0.615357 1.8319 -1.59331 0zm-3.73939 11.1308l3.15474 -9.3898 1.59331 0 -3.15474 9.3898 -1.59331 0z"/>
   <path id="12" class="fil54" d="M20.0245 123.788l1.65591 -0.246851c-0.124016,0.630711 -0.0389765,1.11378 0.251576,1.45158 0.289371,0.335435 0.797248,0.504333 1.52481,0.504333 0.729924,0 1.32402,-0.151182 1.77639,-0.44764 0.453545,-0.29882 0.748822,-0.648428 0.883468,-1.04646 0.121654,-0.3626 0.0590554,-0.643704 -0.185434,-0.851578 -0.170079,-0.141733 -0.653152,-0.32008 -1.44686,-0.537404 -1.06536,-0.295277 -1.79174,-0.549215 -2.16851,-0.766539 -0.377954,-0.21378 -0.621263,-0.512601 -0.726381,-0.892917 -0.105119,-0.380317 -0.0814964,-0.79961 0.0732287,-1.25906 0.140552,-0.419293 0.367324,-0.805515 0.679137,-1.16221 0.311812,-0.359057 0.673231,-0.654334 1.08189,-0.890555 0.308269,-0.180709 0.698034,-0.337797 1.16693,-0.464175 0.471262,-0.126378 0.950791,-0.190158 1.43977,-0.190158 0.737011,0 1.34646,0.108662 1.83308,0.32008 0.487797,0.211418 0.801972,0.497246 0.946067,0.859846 0.142914,0.364962 0.161812,0.848035 0.0578743,1.45512l-1.62638 0.21378c0.0897642,-0.483073 0.01063,-0.859846 -0.236221,-1.1315 -0.246851,-0.271655 -0.680318,-0.407482 -1.29922,-0.407482 -0.731105,0 -1.29331,0.120473 -1.68544,0.3626 -0.395671,0.240946 -0.647247,0.524412 -0.755909,0.848035 -0.0696853,0.207875 -0.0649609,0.392128 0.00826775,0.557483 0.0720476,0.172442 0.227954,0.311812 0.467719,0.42638 0.140552,0.0566932 0.562207,0.192521 1.26969,0.403939 1.0252,0.302363 1.72796,0.546853 2.10591,0.739373 0.382679,0.190158 0.638979,0.471262 0.770082,0.836224 0.131103,0.364962 0.105119,0.818507 -0.076772,1.36182 -0.178347,0.530317 -0.503152,1.02874 -0.968508,1.50001 -0.4689,0.467719 -1.03701,0.829137 -1.70552,1.08662 -0.668507,0.2563 -1.37245,0.382679 -2.10828,0.382679 -1.22245,0 -2.06694,-0.252757 -2.53702,-0.760633 -0.4689,-0.506695 -0.624806,-1.25788 -0.465356,-2.25473z"/>
   <path id="123" class="fil54" d="M32.7273 125.168l-0.243308 1.4067c-0.478349,0.0933075 -0.896461,0.141733 -1.24961,0.141733 -0.578743,0 -0.995674,-0.0909453 -1.25315,-0.275198 -0.2563,-0.180709 -0.398033,-0.421655 -0.427561,-0.720476 -0.0307088,-0.296458 0.113386,-0.923626 0.433466,-1.87796l1.81536 -5.40239 -1.16812 0 0.41575 -1.2378 1.16812 0 0.781893 -2.32678 1.90513 -0.953154 -1.10315 3.27994 1.6004 0 -0.41575 1.2378 -1.59922 0 -1.84489 5.48979c-0.152363,0.455907 -0.223229,0.74646 -0.212599,0.875201 0.0141733,0.129922 0.0696853,0.232678 0.170079,0.311812 0.101575,0.0755909 0.269292,0.114567 0.505514,0.114567 0.177166,0 0.416931,-0.0212599 0.721657,-0.0637798z"/>
   <path id="1234" class="fil54" d="M41.2478 123.569l1.57678 0.201969c-0.583467,0.962603 -1.31339,1.70788 -2.19214,2.23938 -0.881106,0.527955 -1.86615,0.793704 -2.95631,0.793704 -1.37245,0 -2.32088,-0.422836 -2.83938,-1.26733 -0.522049,-0.845673 -0.524412,-2.0315 -0.0118111,-3.55868 0.531498,-1.5815 1.35001,-2.80749 2.45552,-3.67915 1.10788,-0.871657 2.30788,-1.30985 3.60592,-1.30985 1.25552,0 2.1378,0.428742 2.6445,1.28268 0.510238,0.853941 0.503152,2.05867 -0.0165355,3.6071 -0.0318899,0.0956697 -0.0826775,0.238584 -0.152363,0.425199l-7.0016 0c-0.289371,1.03229 -0.262206,1.82245 0.0791342,2.3693 0.340159,0.549215 0.900004,0.824413 1.68544,0.824413 0.582286,0 1.1315,-0.154725 1.64883,-0.461813 0.516144,-0.304726 1.0063,-0.793704 1.47402,-1.46694zm-4.35947 -2.57481l5.24175 0c0.194883,-0.787799 0.192521,-1.3819 -0.00472443,-1.7752 -0.301182,-0.611814 -0.855122,-0.920083 -1.66064,-0.920083 -0.731105,0 -1.42914,0.244489 -2.09056,0.733468 -0.662601,0.488978 -1.15749,1.14331 -1.48583,1.96182z"/>
   <path id="12345" class="fil54" d="M43.8781 126.592l3.15474 -9.3898 1.42087 0 -0.441734 1.31693c0.450002,-0.459451 0.967327,-0.830319 1.54961,-1.10788 0.582286,-0.281104 1.18819,-0.422836 1.813,-0.422836 0.694491,0 1.21654,0.145276 1.56261,0.434648 0.349608,0.289371 0.529136,0.690948 0.535042,1.21064 1.11378,-1.09607 2.26418,-1.64528 3.45356,-1.64528 0.931894,0 1.56024,0.259844 1.88859,0.775988 0.327167,0.516144 0.310631,1.30985 -0.0484254,2.38111l-2.16615 6.44648 -1.5815 0 1.9878 -5.91499c0.21378,-0.636617 0.316537,-1.09607 0.308269,-1.37717 -0.0129922,-0.27756 -0.124016,-0.503152 -0.334253,-0.675593 -0.214962,-0.168898 -0.505514,-0.2563 -0.870476,-0.2563 -0.66142,0 -1.2815,0.219686 -1.86733,0.660239 -0.582286,0.438191 -1.03819,1.14095 -1.363,2.1071l-1.83308 5.45672 -1.58977 0 2.04804 -6.09924c0.238584,-0.709846 0.287009,-1.24016 0.146457,-1.59331 -0.140552,-0.354332 -0.504333,-0.531498 -1.09489,-0.531498 -0.44764,0 -0.900004,0.11693 -1.36064,0.355513 -0.459451,0.236221 -0.85276,0.579924 -1.17402,1.03229 -0.324805,0.455907 -0.62953,1.11142 -0.916539,1.96536l-1.63583 4.87089 -1.59095 0z"/>
   <path id="123456" class="fil54" d="M65.4794 125.434c-0.759452,0.50079 -1.44568,0.853941 -2.05867,1.06182 -0.615357,0.205513 -1.23544,0.308269 -1.86024,0.308269 -1.03229,0 -1.73859,-0.250395 -2.12481,-0.754728 -0.382679,-0.503152 -0.444096,-1.14922 -0.180709,-1.93111 0.154725,-0.461813 0.398033,-0.881106 0.737011,-1.26142 0.336616,-0.380317 0.713389,-0.685042 1.12796,-0.915358 0.418112,-0.229135 0.857484,-0.403939 1.32284,-0.522049 0.337797,-0.0814964 0.836224,-0.162993 1.49292,-0.238584 1.33701,-0.153544 2.34568,-0.334253 3.02482,-0.549215 0.0779531,-0.217324 0.12756,-0.355513 0.147638,-0.413388 0.217324,-0.648428 0.220867,-1.10788 0.00708664,-1.37008 -0.282285,-0.3626 -0.829137,-0.539766 -1.62875,-0.539766 -0.748822,0 -1.34528,0.129922 -1.79174,0.392128 -0.445277,0.262206 -0.86339,0.727562 -1.26024,1.39371l-1.48229 -0.21378c0.364962,-0.663782 0.779531,-1.20473 1.23898,-1.61221 0.460632,-0.409844 1.03819,-0.726381 1.72442,-0.947248 0.687405,-0.220867 1.43386,-0.331891 2.24292,-0.331891 0.803153,0 1.41969,0.0968508 1.85788,0.283466 0.43701,0.190158 0.7252,0.425199 0.868114,0.712208 0.139371,0.287009 0.180709,0.646066 0.131103,1.08426 -0.0401577,0.271655 -0.177166,0.760633 -0.414569,1.46694l-0.712208 2.12127c-0.498427,1.48229 -0.779531,2.41773 -0.840948,2.80749 -0.0649609,0.392128 -0.0566932,0.768901 0.022441,1.12796l-1.663 0c-0.0519687,-0.328348 -0.0318899,-0.71457 0.0720476,-1.15867zm1.06182 -3.55513c-0.659058,0.238584 -1.59331,0.43701 -2.80159,0.603546 -0.686223,0.0933075 -1.18701,0.198426 -1.49528,0.316537 -0.310631,0.118111 -0.579924,0.289371 -0.801972,0.519687 -0.223229,0.225592 -0.382679,0.475986 -0.475986,0.753547 -0.142914,0.42638 -0.099213,0.779531 0.125197,1.063 0.225592,0.281104 0.649609,0.422836 1.26851,0.422836 0.611814,0 1.20355,-0.133465 1.77048,-0.401577 0.566932,-0.269292 1.0441,-0.636617 1.42323,-1.10197 0.292915,-0.359057 0.55512,-0.890555 0.790161,-1.59095l0.197245 -0.584648z"/>
   <path id="1234567" class="fil54" d="M69.3393 123.788l1.65591 -0.246851c-0.124016,0.630711 -0.0389765,1.11378 0.251576,1.45158 0.289371,0.335435 0.797248,0.504333 1.52481,0.504333 0.729924,0 1.32402,-0.151182 1.77639,-0.44764 0.453545,-0.29882 0.748822,-0.648428 0.883468,-1.04646 0.121654,-0.3626 0.0590554,-0.643704 -0.185434,-0.851578 -0.170079,-0.141733 -0.653152,-0.32008 -1.44686,-0.537404 -1.06536,-0.295277 -1.79174,-0.549215 -2.16851,-0.766539 -0.377954,-0.21378 -0.621263,-0.512601 -0.726381,-0.892917 -0.105119,-0.380317 -0.0814964,-0.79961 0.0732287,-1.25906 0.140552,-0.419293 0.367324,-0.805515 0.679137,-1.16221 0.311812,-0.359057 0.673231,-0.654334 1.08189,-0.890555 0.308269,-0.180709 0.698034,-0.337797 1.16693,-0.464175 0.471262,-0.126378 0.950791,-0.190158 1.43977,-0.190158 0.737011,0 1.34646,0.108662 1.83308,0.32008 0.487797,0.211418 0.801972,0.497246 0.946067,0.859846 0.142914,0.364962 0.161812,0.848035 0.0578743,1.45512l-1.62638 0.21378c0.0897642,-0.483073 0.01063,-0.859846 -0.236221,-1.1315 -0.246851,-0.271655 -0.680318,-0.407482 -1.29922,-0.407482 -0.731105,0 -1.29331,0.120473 -1.68544,0.3626 -0.395671,0.240946 -0.647247,0.524412 -0.755909,0.848035 -0.0696853,0.207875 -0.0649609,0.392128 0.00826775,0.557483 0.0720476,0.172442 0.227954,0.311812 0.467719,0.42638 0.140552,0.0566932 0.562207,0.192521 1.26969,0.403939 1.0252,0.302363 1.72796,0.546853 2.10591,0.739373 0.382679,0.190158 0.638979,0.471262 0.770082,0.836224 0.131103,0.364962 0.105119,0.818507 -0.076772,1.36182 -0.178347,0.530317 -0.503152,1.02874 -0.968508,1.50001 -0.4689,0.467719 -1.03701,0.829137 -1.70552,1.08662 -0.668507,0.2563 -1.37245,0.382679 -2.10828,0.382679 -1.22245,0 -2.06694,-0.252757 -2.53702,-0.760633 -0.4689,-0.506695 -0.624806,-1.25788 -0.465356,-2.25473z"/>
  </g>
 </g>
</svg>
