<?xml version="1.0" encoding="UTF-8"?>
<!DOCTYPE svg PUBLIC "-//W3C//DTD SVG 1.1//EN" "http://www.w3.org/Graphics/SVG/1.1/DTD/svg11.dtd">
<!-- Creator: CorelDRAW X8 -->
<svg xmlns="http://www.w3.org/2000/svg" xml:space="preserve" width="14.3932mm" height="14.3932mm" version="1.1" style="shape-rendering:geometricPrecision; text-rendering:geometricPrecision; image-rendering:optimizeQuality; fill-rule:evenodd; clip-rule:evenodd"
viewBox="0 0 1439 1439"
 xmlns:xlink="http://www.w3.org/1999/xlink">
 <defs>
  <style type="text/css">
   <![CDATA[
    .str0 {stroke:#373435;stroke-width:7.62}
    .str1 {stroke:#14748A;stroke-width:7.62}
    .fil5 {fill:none;fill-rule:nonzero}
    .fil2 {fill:#FEFEFE}
    .fil4 {fill:#00A859}
    .fil3 {fill:#00AFEF}
    .fil6 {fill:#14748A}
    .fil0 {fill:#373435}
    .fil8 {fill:#FEFEFE;fill-rule:nonzero}
    .fil7 {fill:#14748A;fill-rule:nonzero}
    .fil1 {fill:#14748A;fill-rule:nonzero}
   ]]>
  </style>
    <clipPath id="id0">
     <path d="M299 1405l824 0 0 -906 -824 0 0 906z"/>
    </clipPath>
 </defs>
 <g id="Camada_x0020_1">
  <metadata id="CorelCorpID_0Corel-Layer"/>
  <g id="_2473311845552">
   <g>
    <path class="fil0" d="M271 889c-80,-1 -160,-3 -240,-3 -17,0 -31,-48 -31,-107l0 -400c0,-59 14,-107 31,-107 459,0 918,-6 1377,-6 17,0 31,48 31,107l0 400c0,59 -14,107 -31,107 -85,0 -170,8 -255,8 -9,205 29,305 -141,307 -850,9 -728,48 -741,-306z"/>
    <path id="1" class="fil1" d="M31 892l0 -13 0 0 7 0 8 0 7 0 8 0 8 0 7 0 8 0 7 0 8 0 7 1 8 0 7 0 8 0 7 0 8 0 7 0 7 0 8 0 7 1 8 0 7 0 8 0 7 0 8 0 7 0 8 0 7 1 8 0 7 0 8 0 7 0 8 0 0 13 -8 0 -7 0 -8 0 -7 0 -8 0 -7 0 -8 0 -7 0 -8 -1 -7 0 -8 0 -7 0 -8 0 -7 0 -8 0 -7 0 -8 -1 -7 0 -8 0 -7 0 -8 0 -7 0 -8 0 -7 0 -8 0 -7 0 -8 -1 -7 0 -8 0 -7 0 -8 0 -7 0 0 0zm-37 -113l12 0 0 0 0 5 0 5 0 6 1 5 0 5 0 5 1 5 0 4 1 5 1 4 0 5 1 4 1 4 1 4 1 4 1 3 1 4 1 3 1 3 1 2 1 3 1 2 2 2 1 2 1 2 1 1 1 1 1 1 1 0 1 1 0 0 1 0 0 13 -3 0 -2 -1 -2 -1 -3 -1 -2 -2 -1 -1 -2 -3 -2 -2 -1 -2 -2 -3 -1 -3 -2 -3 -1 -3 -1 -3 -2 -4 -1 -4 -1 -4 -1 -4 -1 -4 -1 -4 0 -5 -1 -4 -1 -5 -1 -5 0 -5 -1 -5 0 -5 0 -5 -1 -6 0 -5 0 -6 0 -5 0 0zm12 -400l0 400 -12 0 0 -400 0 0 12 0zm25 -114l0 13 0 0 -1 0 0 1 -1 0 -1 0 -1 1 -1 1 -1 2 -1 1 -1 2 -2 2 -1 2 -1 3 -1 3 -1 3 -1 3 -1 3 -1 4 -1 3 -1 4 -1 4 -1 5 0 4 -1 4 -1 5 0 5 -1 5 0 4 0 6 -1 5 0 5 0 5 0 6 -12 0 0 -6 0 -6 0 -5 1 -5 0 -6 0 -5 1 -5 0 -5 1 -5 1 -4 1 -5 0 -5 1 -4 1 -4 1 -4 1 -4 1 -4 2 -3 1 -4 1 -3 2 -3 1 -3 2 -2 1 -3 2 -2 2 -2 1 -2 2 -2 3 -1 2 -1 2 -1 3 0 0 0zm1377 -6l0 14 0 0 -43 0 -43 0 -43 0 -43 0 -43 0 -43 0 -43 0 -43 1 -43 0 -43 0 -43 0 -43 0 -43 1 -43 0 -43 0 -43 0 -43 1 -43 0 -43 0 -43 1 -44 0 -43 0 -43 0 -43 0 -43 1 -43 0 -43 0 -43 0 -43 0 -43 0 -43 0 -43 0 0 -13 43 0 43 0 43 0 43 0 43 0 43 -1 43 0 43 0 43 0 43 0 43 -1 43 0 44 0 43 0 43 -1 43 0 43 0 43 0 43 -1 43 0 43 0 43 0 43 -1 43 0 43 0 43 0 43 0 43 0 43 -1 43 0 43 0 43 0 0 0zm37 114l-12 0 0 0 0 -5 0 -6 0 -5 0 -5 -1 -5 0 -5 -1 -5 0 -5 -1 -4 0 -5 -1 -4 -1 -4 -1 -4 -1 -4 -1 -4 -1 -4 -1 -3 -1 -3 -1 -3 -1 -3 -1 -2 -1 -3 -1 -2 -1 -2 -2 -1 -1 -1 -1 -1 -1 -1 -1 -1 0 0 -1 0 -1 0 0 -14 3 1 2 0 3 1 2 2 2 1 2 2 2 2 1 2 2 3 1 3 2 2 1 3 1 4 2 3 1 4 1 3 1 4 1 4 1 4 1 5 1 4 1 5 0 5 1 4 0 5 1 5 0 6 1 5 0 5 0 6 0 5 0 6 0 0zm-12 400l0 -400 12 0 0 400 0 0 -12 0zm-25 114l0 -14 0 0 1 0 1 0 0 0 1 -1 1 -1 1 -1 1 -1 2 -2 1 -1 1 -2 1 -3 1 -2 1 -3 1 -3 1 -3 1 -4 1 -3 1 -4 1 -4 1 -4 1 -4 1 -4 0 -5 1 -4 0 -5 1 -5 0 -5 1 -5 0 -5 0 -5 0 -6 0 -5 12 0 0 6 0 5 0 6 0 5 -1 5 0 5 -1 5 0 5 -1 5 0 5 -1 5 -1 4 -1 4 -1 5 -1 4 -1 4 -1 3 -1 4 -2 3 -1 3 -1 4 -2 2 -1 3 -2 3 -1 2 -2 2 -2 2 -2 1 -2 2 -3 1 -2 0 -3 1 0 0zm-249 2l-13 -1 6 -6 8 0 8 -1 8 0 8 0 8 0 8 0 8 0 8 -1 8 0 8 0 8 -1 8 0 8 0 8 -1 8 0 8 -1 8 0 8 0 8 -1 8 0 8 0 8 -1 8 0 8 0 8 -1 8 0 8 0 8 0 8 -1 8 0 8 0 8 0 0 14 -8 0 -8 0 -8 0 -7 0 -8 0 -8 0 -8 1 -8 0 -8 0 -8 1 -8 0 -8 0 -8 1 -8 0 -8 0 -8 1 -8 0 -8 0 -8 1 -8 0 -8 1 -8 0 -8 0 -8 1 -8 0 -8 0 -8 0 -8 1 -8 0 -8 0 -8 0 -8 0 6 -6zm-13 -1l1 -6 5 0 -6 6zm-134 313l0 -13 0 0 15 0 14 -1 13 -2 11 -2 11 -3 9 -3 9 -4 8 -4 6 -5 6 -5 6 -6 4 -6 4 -7 4 -7 3 -9 2 -8 2 -10 2 -10 1 -11 1 -11 1 -12 0 -13 1 -13 0 -14 0 -15 0 -15 0 -16 0 -16 0 -17 0 -18 1 -18 0 -19 13 1 -1 18 -1 19 0 17 0 17 0 16 0 16 0 16 0 14 0 14 -1 14 0 13 -1 12 -1 12 -1 11 -2 11 -2 10 -3 10 -3 9 -4 9 -5 8 -6 7 -6 7 -7 6 -7 6 -9 4 -10 5 -10 3 -11 3 -13 2 -13 2 -14 1 -16 0 0 0zm-741 -306l0 -13 6 7 1 32 0 30 0 28 0 25 -1 24 0 21 1 20 1 18 1 16 3 14 4 13 5 10 7 10 8 8 10 8 13 6 15 6 18 4 21 4 24 3 27 2 31 2 35 1 38 0 43 0 47 0 51 -1 56 -1 61 -1 67 -1 71 -1 77 -1 0 13 -77 1 -71 1 -66 2 -61 1 -56 0 -52 1 -47 1 -43 0 -38 -1 -35 -1 -31 -1 -28 -3 -25 -3 -21 -4 -19 -4 -17 -6 -14 -8 -12 -8 -9 -10 -8 -11 -6 -13 -5 -14 -3 -16 -1 -17 -1 -18 -1 -20 0 -22 0 -24 1 -26 0 -27 0 -30 -1 -32 6 6zm0 -13l6 0 0 7 -6 -7z"/>
   </g>
   <polygon class="fil2" points="299,1405 1123,1405 1123,499 299,499 "/>
   <g style="clip-path:url(#id0)">
    <g id="_2473311853232">
     <path id="1" class="fil3 str0" d="M968 1434l2 0c93,1 183,-11 272,-33 -26,-139 -41,-274 -25,-412 -88,1 -84,-113 -85,-221 -22,-3 -44,-6 -66,-9 7,74 -30,123 -97,125l0 0c-68,-2 -104,-51 -97,-125 -22,3 -45,6 -67,9 -1,108 3,222 -85,221 16,138 1,273 -25,412 89,22 180,34 273,33z"/>
     <path class="fil4 str0" d="M845 141l-2 0c-93,0 -183,11 -272,33 26,139 41,274 25,412 87,0 84,113 85,222 22,3 44,5 66,8 -7,-74 30,-123 97,-125l0 0c68,2 104,52 97,125 22,-3 44,-5 66,-8 2,-109 -2,-222 86,-222 -16,-138 -1,-273 25,-412 -89,-22 -180,-33 -273,-33z"/>
     <path class="fil4 str0" d="M414 1374l2 0c93,0 183,-11 272,-33 -26,-139 -41,-274 -25,-412 -87,0 -84,-113 -85,-222 -22,-2 -44,-5 -66,-8 7,74 -30,123 -97,125l0 0c-68,-2 -104,-51 -97,-125 -22,3 -44,6 -66,8 -2,109 2,222 -86,222 16,138 1,273 -24,412 88,22 179,33 272,33z"/>
     <path class="fil3 str0" d="M293 98l-2 0c-93,0 -183,12 -272,34 26,138 41,273 25,411 88,0 84,114 85,222 22,3 44,5 66,8 -7,-73 30,-123 97,-125l0 0c68,2 104,52 97,125 22,-3 44,-5 67,-8 1,-108 -3,-222 85,-222 -16,-138 -1,-273 25,-411 -89,-22 -180,-34 -273,-34z"/>
    </g>
   </g>
   <g>
    <polygon class="fil5 str1" points="299,1405 1123,1405 1123,499 299,499 "/>
   </g>
   <g>
    <path class="fil6" d="M277 242l91 1 0 -135 690 1 3 136 83 0c5,-179 -11,-212 -187,-211 -108,0 -271,0 -507,0 -207,2 -160,49 -173,208z"/>
    <path id="1" class="fil7" d="M368 249l-91 -2 0 -10 91 1 5 5 -5 6zm5 -6l0 6 -5 0 5 -6zm-1 -135l1 135 -10 0 0 -135 5 -5 4 5zm-9 0l0 -5 5 0 -5 5zm695 6l-690 0 0 -11 690 1 5 5 -5 5zm0 -10l5 0 0 5 -5 -5zm-2 141l-2 -136 9 0 3 136 -5 5 -5 -5zm5 5l-5 0 0 -5 5 5zm83 0l-83 0 0 -11 83 0 5 6 -5 5zm5 -5l-1 5 -4 0 5 -5zm-192 -206l0 -10 0 0 16 0 15 0 15 0 13 1 13 1 12 2 11 1 10 2 10 3 9 2 8 4 8 3 7 5 6 4 6 6 6 6 5 6 4 7 4 7 3 8 2 9 3 9 2 10 1 11 1 11 1 12 1 12 0 13 0 14 0 15 0 15 0 17 -10 0 0 -17 1 -15 0 -15 0 -14 -1 -13 0 -12 -1 -11 -1 -11 -2 -10 -2 -9 -2 -9 -2 -8 -3 -7 -3 -7 -4 -6 -4 -5 -5 -5 -5 -5 -6 -4 -6 -4 -7 -3 -8 -3 -9 -3 -9 -2 -10 -2 -10 -2 -12 -1 -12 -1 -14 -1 -14 -1 -15 0 -16 0 0 0zm-507 0l0 -10 0 0 22 0 21 0 21 0 21 0 20 0 20 0 20 0 19 0 18 0 19 0 17 0 18 0 17 0 16 0 17 0 16 0 15 0 15 0 15 0 14 0 14 0 14 0 13 0 13 0 13 0 12 0 12 0 12 0 11 0 11 0 11 0 10 0 0 10 -10 0 -11 0 -11 0 -11 0 -12 0 -12 0 -12 0 -13 0 -13 0 -13 0 -14 0 -14 0 -14 0 -15 0 -15 0 -15 0 -16 0 -17 0 -16 0 -17 0 -18 0 -17 0 -19 0 -18 0 -19 0 -20 0 -20 0 -20 0 -21 0 -21 0 -21 0 -22 0 0 0zm0 -10l0 0 0 0 0 0zm-173 208l0 10 -5 -5 1 -15 1 -14 0 -13 1 -13 0 -12 0 -11 0 -11 0 -11 1 -9 0 -10 1 -9 1 -8 1 -8 2 -8 2 -7 3 -7 4 -6 4 -6 5 -5 6 -5 7 -4 7 -4 8 -3 9 -3 10 -3 12 -2 12 -2 13 -1 15 -2 16 -1 17 0 19 0 0 10 -19 1 -17 0 -16 1 -14 1 -13 2 -12 1 -11 2 -9 3 -9 3 -7 3 -7 3 -6 4 -5 4 -4 4 -3 5 -3 5 -3 6 -2 6 -1 7 -2 8 -1 7 0 9 -1 9 0 10 0 10 0 11 -1 11 0 13 0 12 -1 14 0 14 -1 15 -5 -6zm0 10l-6 0 1 -5 5 5z"/>
   </g>
   <path class="fil8" d="M244 451l-29 0 -51 -60 -28 0 0 32 -23 0 0 -53 70 0c1,0 3,0 4,-1 1,-2 2,-3 2,-5 0,-2 0,-3 -1,-4 -1,-1 -2,-1 -3,-2 -1,0 -2,0 -3,0l-69 0 0 -20 84 0c4,0 8,2 10,5 3,3 5,7 5,11l0 21c0,4 -1,7 -2,9 -2,2 -3,3 -5,4 -2,1 -4,2 -7,2 -2,0 -4,0 -4,1l50 60zm68 -92l-91 0 0 -21 91 0 0 21zm3 64l-96 0 0 -19 42 -33 37 0 -42 31 59 0 0 21zm177 -64l-40 0 0 64 -22 0 0 -85 62 0 0 21zm-68 64l-21 0 0 -65 -40 0 0 -20 61 0 0 85zm164 0l-64 0c-4,0 -8,-1 -12,-4 -3,-3 -6,-6 -8,-10 -2,-4 -3,-8 -3,-12l0 -35c0,-4 1,-8 4,-11 2,-4 5,-7 9,-9 4,-3 7,-4 9,-4l63 0 0 19 -56 0c-1,0 -3,1 -4,2 -1,0 -2,1 -3,3 -1,1 -1,2 -1,4l0 5 64 0 0 19 -64 0 0 7c0,1 1,3 3,4 2,1 4,2 5,2l58 0 0 20zm-11 -94l-26 0 -2 -4c-1,1 -1,2 -2,2 0,1 -1,1 -1,2l-26 0 16 -17 25 0 0 0 16 17zm135 94l-31 0 -28 -32 -28 32 -31 0 38 -42 -34 -43 27 0 27 32 28 -32 29 0 -35 43 38 42zm132 -64l-40 0 0 64 -22 0 0 -85 62 0 0 21zm-67 64l-22 0 0 -65 -40 0 0 -20 62 0 0 85zm99 0l-22 0 0 -85 22 0 0 85zm98 0l-64 0c-4,0 -7,-1 -10,-4 -3,-3 -6,-6 -8,-10 -2,-3 -3,-6 -3,-8l0 -63 21 0 0 51c0,3 1,5 2,8 1,2 3,3 5,4 2,1 4,2 5,2l52 0 0 20zm117 -22c0,2 -1,6 -3,9 -2,4 -5,7 -9,9 -3,3 -7,4 -10,4l-47 0 0 -20 34 0c2,0 5,-1 7,-3 1,-1 3,-3 4,-4 1,-2 2,-4 2,-6l0 -52 22 0 0 63zm98 22l-63 0c-5,0 -9,-1 -12,-4 -4,-3 -7,-6 -9,-10 -2,-4 -3,-8 -3,-12l0 -35c0,-4 1,-8 4,-11 3,-4 6,-7 9,-9 4,-3 7,-4 10,-4l63 0 0 19 -56 0c-2,0 -3,1 -4,2 -2,0 -3,1 -3,3 -1,1 -2,2 -2,4l0 5 64 0 0 19 -63 0 0 7c0,1 1,3 2,4 2,1 4,2 6,2l57 0 0 20zm137 -64l-40 0 0 64 -22 0 0 -85 62 0 0 21zm-67 64l-22 0 0 -65 -40 0 0 -20 62 0 0 85z"/>
  </g>
 </g>
</svg>
