<?xml version="1.0" encoding="UTF-8"?>
<!DOCTYPE svg PUBLIC "-//W3C//DTD SVG 1.1//EN" "http://www.w3.org/Graphics/SVG/1.1/DTD/svg11.dtd">
<!-- Creator: CorelDRAW X8 -->
<svg xmlns="http://www.w3.org/2000/svg" xml:space="preserve" width="14.3932mm" height="14.3932mm" version="1.1" style="shape-rendering:geometricPrecision; text-rendering:geometricPrecision; image-rendering:optimizeQuality; fill-rule:evenodd; clip-rule:evenodd"
viewBox="0 0 1439 1439"
 xmlns:xlink="http://www.w3.org/1999/xlink">
 <defs>
  <style type="text/css">
   <![CDATA[
    .fil0 {fill:#00AFEF}
    .fil1 {fill:#14748A}
    .fil3 {fill:#FEFEFE}
    .fil2 {fill:#373435;fill-rule:nonzero}
   ]]>
  </style>
 </defs>
 <g id="Camada_x0020_1">
  <metadata id="CorelCorpID_0Corel-Layer"/>
  <path class="fil0" d="M1258 220c21,9 33,15 53,17 66,5 127,-45 128,-115 1,-20 -3,-35 -11,-53 -32,-78 -143,-94 -198,-28 -18,23 -28,48 -28,76 -1,24 6,50 21,68l-337 364c11,6 28,24 36,33 11,-10 76,-84 88,-96l211 -227c13,-13 24,-27 37,-39z"/>
  <path class="fil0" d="M182 220c-22,9 -34,15 -53,17 -67,5 -128,-45 -129,-115 0,-20 4,-35 11,-53 33,-78 143,-94 198,-28 19,23 28,48 29,76 0,24 -7,50 -21,68l337 364c-12,6 -29,24 -36,33 -11,-10 -77,-84 -88,-96l-212 -227c-12,-13 -24,-27 -36,-39z"/>
  <path class="fil0" d="M1258 1219c21,-9 33,-15 53,-17 66,-5 127,45 128,116 1,19 -3,35 -11,52 -32,78 -143,94 -198,28 -18,-22 -28,-48 -28,-75 -1,-25 6,-51 21,-68l-337 -364c11,-6 28,-25 36,-34 11,11 76,85 88,96l211 227c13,14 24,28 37,39z"/>
  <path class="fil0" d="M182 1219c-22,-9 -34,-15 -53,-17 -67,-5 -128,45 -129,116 0,19 4,35 11,52 33,78 143,94 198,28 19,-22 28,-48 29,-75 0,-25 -7,-51 -21,-68l284 -305c-12,-6 -29,-24 -36,-33 -11,10 -24,25 -35,36l-212 227c-12,14 -24,28 -36,39z"/>
  <g id="_1634328908688">
   <path id="_307336616" class="fil1" d="M1196 1017l-835 0c-30,0 -55,-23 -55,-52l0 -430c0,-28 25,-52 55,-52l715 0 175 221 0 261c0,29 -25,52 -55,52z"/>
   <path id="_3073366161" class="fil2" d="M361 987l835 0 0 61 -835 0 0 0 0 -61zm-87 -22l64 0 0 0 0 2 0 1 1 1 0 1 0 1 0 1 1 1 0 1 0 1 1 0 0 1 1 1 1 1 0 1 1 1 1 0 1 1 0 1 1 0 1 1 1 1 1 0 1 1 1 0 1 0 1 1 1 0 1 0 1 0 1 1 2 0 1 0 0 61 -5 0 -4 -1 -5 0 -4 -1 -4 -1 -4 -1 -4 -1 -4 -2 -4 -1 -4 -2 -4 -2 -3 -2 -3 -3 -4 -2 -3 -3 -3 -2 -3 -3 -2 -3 -3 -3 -3 -3 -2 -4 -2 -3 -2 -4 -2 -3 -1 -4 -2 -4 -1 -4 -1 -4 0 -4 -1 -4 0 -4 0 -5 0 0zm64 -430l0 430 -64 0 0 -430 0 0 64 0zm23 -82l0 61 0 0 -1 0 -2 0 -1 0 -1 0 -1 1 -1 0 -1 0 -1 1 -1 0 -1 1 -1 0 -1 1 -1 0 -1 1 0 1 -1 0 -1 1 -1 1 0 1 -1 0 -1 1 0 1 -1 1 0 1 0 1 -1 1 0 1 0 1 0 1 -1 1 0 1 0 1 -64 0 0 -4 0 -4 1 -4 0 -4 1 -4 1 -4 2 -4 1 -4 2 -4 2 -3 2 -4 2 -3 3 -3 3 -3 2 -3 3 -3 3 -3 3 -2 4 -3 3 -2 3 -2 4 -2 4 -2 4 -2 4 -1 4 -1 4 -2 4 -1 4 0 5 -1 4 0 5 0 0 0zm715 61l-715 0 0 -61 715 0 26 12 -26 49zm0 0l0 -61 1 0 2 0 2 0 1 0 2 1 1 0 2 1 1 0 2 1 1 0 2 1 1 1 1 1 1 1 2 1 1 1 1 1 1 1 1 1 1 1 0 2 1 1 1 1 1 1 0 2 1 1 0 2 0 1 1 2 0 1 0 2 0 1 0 2 0 2 0 1 -1 2 0 1 0 2 -1 1 0 1 -1 2 -1 1 -1 1 0 2 -1 1 -1 1 -1 1 -1 1 -1 1 -2 1 -1 1 -1 1 -1 1 -2 0 -1 1 -2 1 -1 0 -2 1 -1 0 -2 0 -1 1 -2 0 -2 0 -1 0zm149 208l-175 -220 52 -37 175 220 6 19 -58 18zm0 0l52 -37 1 2 1 1 1 1 0 2 1 1 1 1 0 2 0 1 1 2 0 1 0 2 0 1 0 2 0 1 0 1 0 2 0 1 0 2 -1 1 0 2 -1 1 0 1 -1 2 -1 1 -1 1 -1 2 -1 1 -1 1 -1 1 -1 1 -1 1 -1 1 -2 1 -1 1 -2 1 -1 0 -2 1 -1 1 -1 0 -2 0 -2 1 -1 0 -2 0 -1 0 -2 0 -1 0 -2 0 -1 0 -2 0 -1 -1 -2 0 -1 0 -2 -1 -1 0 -2 -1 -1 -1 -1 -1 -2 0 -1 -1 -1 -1 -1 -1 -2 -1 -1 -2 -1 -1zm-6 243l0 -261 64 0 0 261 0 0 -64 0zm-23 83l0 -61 0 0 1 0 2 0 1 -1 1 0 1 0 1 0 1 -1 1 0 1 0 1 -1 1 0 1 -1 1 -1 1 0 0 -1 1 -1 1 0 1 -1 0 -1 1 -1 1 -1 0 -1 1 0 0 -1 0 -1 1 -1 0 -1 0 -1 0 -1 1 -1 0 -1 0 -2 64 0 0 5 0 4 -1 4 0 4 -1 4 -1 4 -2 4 -1 4 -2 3 -2 4 -2 3 -2 4 -3 3 -3 3 -2 3 -3 3 -3 2 -3 3 -4 2 -3 3 -4 2 -3 2 -4 2 -4 1 -4 2 -4 1 -4 1 -4 1 -4 1 -5 0 -4 1 -5 0 0 0z"/>
   <path class="fil0" d="M226 325l600 0c21,0 37,12 37,28l0 443c0,16 -16,29 -37,29l-600 0c-21,0 -38,-13 -38,-29l0 -443c0,-16 17,-28 38,-28z"/>
   <path id="_1" class="fil2" d="M826 355l-600 0 0 -61 600 0 0 0 0 61zm70 -2l-65 0 0 0 0 1 0 0 0 1 0 0 1 0 0 1 0 0 0 0 0 1 0 0 0 0 0 0 0 0 0 0 0 0 0 0 0 0 0 0 0 0 0 -1 -1 0 0 0 -1 0 0 0 0 0 -1 0 0 0 -1 -1 0 0 -1 0 0 0 -1 0 0 -61 3 0 3 0 4 1 3 0 3 1 3 0 3 1 3 1 3 1 3 1 2 1 3 2 3 1 3 2 2 1 3 2 2 2 2 2 2 2 3 2 2 3 2 2 1 3 2 3 1 3 2 3 1 3 1 3 1 3 0 3 1 4 0 3 0 0zm-65 443l0 -443 65 0 0 443 0 0 -65 0zm-5 59l0 -61 0 0 1 0 0 0 1 0 0 0 1 0 0 0 1 0 0 0 1 -1 0 0 0 0 1 0 0 0 0 0 0 0 0 0 0 -1 0 0 0 0 0 0 0 1 0 0 0 0 0 0 0 0 0 1 0 0 -1 0 0 1 0 0 0 1 0 0 65 0 0 4 -1 3 0 3 -1 4 -1 3 -1 3 -2 3 -1 3 -2 2 -1 3 -2 3 -2 2 -3 2 -2 2 -2 2 -2 2 -3 2 -2 2 -3 1 -3 2 -3 1 -2 1 -3 2 -3 1 -3 0 -3 1 -3 1 -3 0 -3 1 -4 0 -3 0 -3 0 0 0zm-600 -61l600 0 0 61 -600 0 0 0 0 -61zm-70 2l64 0 0 0 0 0 0 -1 0 0 0 -1 0 0 0 0 0 -1 -1 0 0 0 0 0 0 0 0 -1 0 0 0 0 0 0 0 1 0 0 1 0 0 0 0 0 0 0 1 0 0 0 0 1 1 0 0 0 1 0 0 0 1 0 0 0 1 0 1 0 0 61 -4 0 -3 0 -3 0 -3 -1 -3 0 -3 -1 -3 -1 -3 0 -3 -1 -3 -2 -3 -1 -3 -1 -2 -2 -3 -1 -3 -2 -2 -2 -2 -2 -3 -2 -2 -2 -2 -2 -2 -2 -2 -3 -2 -3 -1 -2 -2 -3 -1 -3 -1 -3 -1 -3 -1 -4 -1 -3 0 -3 0 -4 0 0zm64 -443l0 443 -64 0 0 -443 0 0 64 0zm6 -59l0 61 0 0 -1 0 -1 0 0 0 -1 0 0 1 -1 0 0 0 -1 0 0 0 0 0 -1 0 0 0 0 1 0 0 -1 0 0 0 0 0 0 0 0 0 0 0 0 0 0 0 0 0 0 -1 1 0 0 0 0 -1 0 0 0 0 0 -1 0 0 0 -1 -64 0 0 -3 0 -4 1 -3 1 -3 1 -3 1 -3 1 -3 2 -3 1 -3 2 -3 2 -2 2 -3 2 -2 2 -2 3 -2 2 -2 2 -2 3 -1 3 -2 2 -1 3 -2 3 -1 3 -1 3 -1 3 -1 3 -1 3 0 3 -1 3 0 3 -1 3 0 4 0 0 0z"/>
   <path class="fil3" d="M991 566l40 1 123 174c16,23 -5,70 -37,70l-126 0c-18,0 -32,-13 -32,-30l0 -185c0,-16 15,-30 32,-30z"/>
   <path id="_1_0" class="fil2" d="M1031 579l-40 0 0 -25 40 1 11 5 -11 19zm0 0l0 -24 1 0 0 0 1 0 1 0 0 0 1 0 1 1 0 0 1 0 0 0 1 1 0 0 1 0 0 1 1 0 0 1 1 0 0 1 0 0 1 0 0 1 0 0 1 1 0 1 0 0 0 1 0 0 1 1 0 0 0 1 0 1 0 0 0 1 0 1 0 0 -1 1 0 0 0 1 0 1 0 0 -1 1 0 0 0 1 -1 0 0 1 0 0 -1 1 0 0 -1 0 0 1 -1 0 0 0 -1 1 0 0 -1 0 0 0 -1 1 -1 0 0 0 -1 0 0 0 -1 0 -1 0 0 0zm112 169l-123 -174 22 -14 123 174 0 0 -22 14zm-26 75l0 -24 0 0 2 0 1 0 2 -1 2 0 2 -1 1 -1 2 -1 2 -1 1 -1 2 -2 1 -1 2 -2 1 -2 2 -2 1 -2 1 -2 1 -3 1 -2 1 -2 0 -2 1 -3 0 -2 0 -2 1 -2 0 -2 -1 -2 0 -2 0 -2 -1 -2 0 -1 -1 -2 -1 -1 22 -14 2 4 1 3 2 3 1 4 1 3 0 4 0 4 0 3 0 4 0 3 -1 4 -1 3 -1 4 -1 3 -1 4 -2 3 -1 3 -2 3 -2 4 -2 3 -3 2 -2 3 -3 3 -3 2 -3 2 -4 2 -3 2 -4 2 -4 1 -4 1 -4 0 -4 0 0 0zm-126 -24l126 0 0 24 -126 0 0 0 0 -24zm-45 -18l26 0 0 0 0 1 0 1 0 1 1 1 0 1 0 1 0 0 1 1 0 1 1 1 0 0 0 1 1 1 1 1 0 0 1 1 0 0 1 1 1 0 1 1 0 0 1 1 1 0 1 1 0 0 1 0 1 0 1 1 1 0 1 0 1 0 1 0 0 24 -2 0 -3 0 -2 0 -2 0 -2 -1 -2 0 -2 -1 -2 -1 -2 -1 -2 -1 -2 -1 -2 -1 -2 -1 -1 -1 -2 -1 -2 -2 -1 -1 -1 -2 -2 -1 -1 -2 -1 -2 -1 -2 -1 -1 -1 -2 -1 -2 -1 -2 0 -2 -1 -2 0 -2 0 -2 -1 -2 0 -3 0 0zm26 -185l0 185 -26 0 0 -185 0 0 26 0zm19 -42l0 25 0 0 -1 0 -1 0 -1 0 -1 0 -1 0 -1 0 -1 1 0 0 -1 0 -1 1 -1 0 0 0 -1 1 -1 0 -1 1 0 1 -1 0 0 1 -1 1 -1 0 0 1 0 1 -1 0 0 1 -1 1 0 1 0 1 0 1 -1 0 0 1 0 1 0 1 -26 0 0 -2 1 -2 0 -2 0 -2 1 -2 0 -2 1 -2 1 -2 1 -2 1 -2 1 -2 1 -1 1 -2 2 -2 1 -1 1 -2 2 -1 2 -1 1 -2 2 -1 2 -1 2 -1 2 -1 2 -1 2 0 2 -1 2 -1 2 0 2 -1 3 0 2 0 2 0 0 0z"/>
   <path class="fil3" d="M480 953c49,0 88,37 88,84 0,46 -39,83 -88,83 -49,0 -88,-37 -88,-83 0,-47 39,-84 88,-84z"/>
   <path id="_1_1" class="fil2" d="M595 1037l-53 0 0 0 0 -3 -1 -3 0 -3 -1 -3 0 -3 -1 -3 -1 -2 -1 -3 -1 -3 -2 -2 -1 -3 -2 -2 -2 -2 -1 -2 -2 -3 -2 -2 -2 -1 -3 -2 -2 -2 -2 -2 -3 -1 -3 -2 -2 -1 -3 -1 -3 -1 -3 -1 -2 -1 -3 0 -3 -1 -4 0 -3 -1 -3 0 0 -50 6 0 6 0 5 1 6 1 6 1 5 2 5 1 6 2 5 3 5 2 5 3 4 2 5 3 4 4 4 3 4 4 4 3 4 4 3 4 3 5 3 4 3 5 3 4 2 5 2 5 2 5 1 5 2 6 1 5 0 5 1 6 0 6 0 0zm-115 108l0 -50 0 0 3 0 3 -1 4 0 3 0 3 -1 2 -1 3 -1 3 -1 3 -1 2 -1 3 -2 3 -1 2 -2 2 -2 3 -1 2 -2 2 -2 2 -2 1 -3 2 -2 2 -2 1 -3 2 -2 1 -3 1 -2 1 -3 1 -3 0 -3 1 -3 0 -2 1 -3 0 -3 53 0 0 5 -1 6 0 5 -1 5 -2 6 -1 5 -2 5 -2 5 -2 5 -3 4 -3 5 -3 4 -3 5 -3 4 -4 4 -4 3 -4 4 -4 3 -4 4 -5 3 -4 3 -5 2 -5 3 -5 2 -6 2 -5 1 -5 2 -6 1 -6 1 -5 1 -6 0 -6 0 0 0zm-115 -108l53 0 0 0 1 3 0 3 0 2 1 3 0 3 1 3 1 3 1 2 1 3 2 2 1 3 2 2 2 2 1 3 2 2 2 2 3 2 2 1 2 2 3 2 2 1 3 2 2 1 3 1 3 1 3 1 3 1 3 1 3 0 3 0 3 1 3 0 0 50 -6 0 -6 0 -5 -1 -6 -1 -6 -1 -5 -2 -5 -1 -6 -2 -5 -2 -5 -3 -4 -2 -5 -3 -5 -3 -4 -4 -4 -3 -4 -4 -4 -3 -3 -4 -4 -4 -3 -5 -3 -4 -3 -5 -2 -4 -3 -5 -2 -5 -2 -5 -1 -5 -1 -6 -1 -5 -1 -5 -1 -6 0 -5 0 0zm115 -109l0 50 0 0 -3 0 -3 1 -3 0 -3 1 -3 0 -3 1 -3 1 -3 1 -3 1 -2 1 -3 2 -2 1 -3 2 -2 2 -2 2 -3 1 -2 2 -2 3 -1 2 -2 2 -2 2 -1 3 -2 2 -1 3 -1 3 -1 2 -1 3 0 3 -1 3 0 3 0 3 -1 3 -53 0 0 -6 1 -6 1 -5 1 -5 1 -6 1 -5 2 -5 2 -5 3 -5 2 -4 3 -5 3 -4 3 -5 4 -4 3 -4 4 -3 4 -4 4 -3 4 -4 5 -3 5 -2 4 -3 5 -2 5 -3 6 -2 5 -1 5 -2 6 -1 6 -1 5 -1 6 0 6 0 0 0z"/>
   <path class="fil3" d="M874 953c49,0 88,37 88,84 0,46 -39,83 -88,83 -48,0 -88,-37 -88,-83 0,-47 40,-84 88,-84z"/>
   <path id="_1_2" class="fil2" d="M989 1037l-53 0 0 0 0 -3 0 -3 -1 -3 0 -3 -1 -3 -1 -3 -1 -2 -1 -3 -1 -3 -2 -2 -1 -3 -2 -2 -1 -2 -2 -2 -2 -3 -2 -2 -2 -1 -3 -2 -2 -2 -2 -2 -3 -1 -2 -2 -3 -1 -3 -1 -3 -1 -2 -1 -3 -1 -3 0 -3 -1 -3 0 -4 -1 -3 0 0 -50 6 0 6 0 6 1 5 1 6 1 5 2 6 1 5 2 5 3 5 2 5 3 4 2 5 3 4 4 4 3 4 4 4 3 4 4 3 4 3 5 3 4 3 5 3 4 2 5 2 5 2 5 1 5 2 6 1 5 0 5 1 6 0 6 0 0zm-115 108l0 -50 0 0 3 0 4 -1 3 0 3 0 3 -1 3 -1 2 -1 3 -1 3 -1 3 -1 2 -2 3 -1 2 -2 2 -2 3 -1 2 -2 2 -2 2 -2 2 -3 1 -2 2 -2 1 -3 2 -2 1 -3 1 -2 1 -3 1 -3 1 -3 0 -3 1 -2 0 -3 0 -3 53 0 0 5 -1 6 0 5 -1 5 -2 6 -1 5 -2 5 -2 5 -2 5 -3 4 -3 5 -3 4 -3 5 -3 4 -4 4 -4 3 -4 4 -4 3 -4 4 -5 3 -4 3 -5 2 -5 3 -5 2 -5 2 -6 1 -5 2 -6 1 -5 1 -6 1 -6 0 -6 0 0 0zm-115 -108l54 0 0 0 0 3 0 3 0 2 1 3 1 3 0 3 1 3 1 2 2 3 1 2 2 3 1 2 2 2 2 3 2 2 2 2 2 2 2 1 2 2 3 2 2 1 3 2 3 1 2 1 3 1 3 1 3 1 3 1 3 0 3 0 3 1 3 0 0 50 -6 0 -5 0 -6 -1 -6 -1 -5 -1 -6 -2 -5 -1 -5 -2 -5 -2 -5 -3 -5 -2 -5 -3 -4 -3 -5 -4 -4 -3 -4 -4 -4 -3 -3 -4 -4 -4 -3 -5 -3 -4 -3 -5 -2 -4 -3 -5 -2 -5 -1 -5 -2 -5 -1 -6 -1 -5 -1 -5 0 -6 -1 -5 0 0zm115 -109l0 50 0 0 -3 0 -3 1 -3 0 -3 1 -3 0 -3 1 -3 1 -3 1 -2 1 -3 1 -3 2 -2 1 -3 2 -2 2 -2 2 -2 1 -2 2 -2 3 -2 2 -2 2 -1 2 -2 3 -1 2 -2 3 -1 3 -1 2 0 3 -1 3 -1 3 0 3 0 3 0 3 -54 0 1 -6 0 -6 1 -5 1 -5 1 -6 2 -5 1 -5 2 -5 3 -5 2 -4 3 -5 3 -4 3 -5 4 -4 3 -4 4 -3 4 -4 4 -3 5 -4 4 -3 5 -2 5 -3 5 -2 5 -3 5 -2 5 -1 6 -2 5 -1 6 -1 6 -1 5 0 6 0 0 0z"/>
  </g>
 </g>
</svg>
