<?xml version="1.0" encoding="UTF-8"?>
<!DOCTYPE svg PUBLIC "-//W3C//DTD SVG 1.1//EN" "http://www.w3.org/Graphics/SVG/1.1/DTD/svg11.dtd">
<!-- Creator: CorelDRAW X8 -->
<svg xmlns="http://www.w3.org/2000/svg" xml:space="preserve" width="14.3932mm" height="14.3932mm" version="1.1" style="shape-rendering:geometricPrecision; text-rendering:geometricPrecision; image-rendering:optimizeQuality; fill-rule:evenodd; clip-rule:evenodd"
viewBox="0 0 1439 1439"
 xmlns:xlink="http://www.w3.org/1999/xlink">
 <defs>
  <style type="text/css">
   <![CDATA[
    .fil3 {fill:#00AFEF}
    .fil1 {fill:#14748A}
    .fil0 {fill:#373435}
    .fil4 {fill:#FEFEFE}
    .fil2 {fill:#373435;fill-rule:nonzero}
   ]]>
  </style>
 </defs>
 <g id="Camada_x0020_1">
  <metadata id="CorelCorpID_0Corel-Layer"/>
  <g id="_2473238581200">
   <path class="fil0" d="M1008 0c238,0 431,193 431,431 0,238 -193,431 -431,431 -238,0 -431,-193 -431,-431 0,-238 193,-431 431,-431zm0 112c177,0 320,143 320,319 0,176 -143,319 -320,319 -176,0 -319,-143 -319,-319 0,-176 143,-319 319,-319z"/>
   <path class="fil0" d="M861 280c0,292 -29,295 97,325 35,8 118,34 147,34 23,0 54,-29 54,-51 0,-73 -126,-68 -183,-96 0,-32 4,-212 -4,-234 -24,-58 -111,-40 -111,22z"/>
  </g>
  <path id="_307336616" class="fil1" d="M1090 1284l-875 0c-32,0 -58,-25 -58,-55l0 -451c0,-29 26,-54 58,-54l749 0 184 231 0 274c0,30 -26,55 -58,55z"/>
  <path id="_3073366161" class="fil2" d="M215 1252l875 0 0 64 -875 0 0 0 0 -64zm-92 -23l68 0 0 0 0 1 0 2 0 1 1 1 0 1 0 1 1 1 0 1 0 1 1 1 1 1 0 1 1 1 1 0 0 1 1 1 1 1 1 0 1 1 1 1 1 0 1 1 1 0 1 1 1 0 1 1 1 0 1 0 1 0 1 0 1 1 2 0 0 64 -5 0 -5 -1 -4 0 -5 -1 -4 -1 -4 -1 -5 -2 -4 -1 -4 -2 -4 -2 -4 -2 -3 -2 -4 -3 -3 -2 -4 -3 -3 -3 -3 -3 -3 -3 -2 -3 -3 -3 -2 -4 -3 -4 -2 -3 -1 -4 -2 -4 -2 -4 -1 -4 -1 -4 -1 -5 0 -4 -1 -4 0 -5 0 0zm68 -451l0 451 -68 0 0 -451 0 0 68 0zm24 -86l0 64 0 0 -2 0 -1 0 -1 1 -1 0 -1 0 -1 0 -1 1 -1 0 -1 0 -1 1 -1 0 -1 1 -1 1 -1 0 -1 1 -1 1 -1 1 0 0 -1 1 -1 1 0 1 -1 1 -1 1 0 1 0 1 -1 1 0 1 0 1 -1 1 0 1 0 1 0 1 -68 0 0 -4 1 -4 0 -5 1 -4 1 -4 1 -4 2 -4 2 -4 1 -4 2 -4 3 -3 2 -4 3 -3 2 -3 3 -4 3 -3 3 -2 4 -3 3 -3 4 -2 3 -2 4 -2 4 -2 4 -2 4 -2 5 -1 4 -1 4 -1 5 -1 4 0 5 -1 5 0 0 0zm749 64l-749 0 0 -64 749 0 27 13 -27 51zm0 0l0 -64 2 0 1 0 2 0 2 1 1 0 2 1 2 0 1 1 2 0 1 1 2 1 1 1 1 0 2 1 1 1 1 1 1 2 1 1 1 1 1 1 1 2 1 1 1 1 0 2 1 1 0 2 1 1 0 2 1 1 0 2 0 2 0 1 0 2 0 1 0 2 -1 2 0 1 -1 2 0 1 -1 2 0 1 -1 1 -1 2 -1 1 -1 1 -1 2 -1 1 -1 1 -1 1 -1 1 -2 1 -1 1 -1 1 -2 0 -1 1 -2 1 -1 0 -2 1 -2 0 -1 1 -2 0 -2 0 -1 0 -2 0zm157 218l-184 -231 54 -38 184 231 7 19 -61 19zm0 0l54 -38 1 1 1 1 1 2 0 1 1 2 1 1 0 2 1 1 0 2 0 1 0 2 1 1 0 2 0 1 -1 2 0 1 0 2 0 2 -1 1 0 1 -1 2 0 1 -1 2 -1 1 -1 1 -1 2 -1 1 -1 1 -1 1 -1 2 -2 1 -1 1 -1 1 -2 0 -1 1 -2 1 -1 1 -2 0 -1 1 -2 0 -2 0 -1 1 -2 0 -2 0 -1 0 -2 0 -1 0 -2 0 -2 0 -1 -1 -2 0 -1 -1 -2 0 -1 -1 -2 0 -1 -1 -2 -1 -1 -1 -1 -1 -2 -1 -1 -1 -1 -1 -1 -1 -1 -2zm-7 255l0 -274 68 0 0 274 0 0 -68 0zm-24 87l0 -64 0 0 2 0 1 -1 1 0 1 0 1 0 1 0 1 -1 1 0 1 -1 1 0 1 -1 1 0 1 -1 1 -1 1 0 1 -1 1 -1 0 -1 1 -1 1 0 0 -1 1 -1 1 -1 0 -1 0 -1 1 -1 0 -1 0 -1 1 -1 0 -1 0 -2 0 -1 68 0 0 5 -1 4 0 4 -1 5 -1 4 -1 4 -2 4 -2 4 -1 4 -2 3 -3 4 -2 4 -3 3 -2 3 -3 3 -3 3 -3 3 -4 3 -3 2 -4 3 -3 2 -4 2 -4 2 -4 2 -4 1 -5 2 -4 1 -4 1 -5 1 -4 0 -5 1 -5 0 0 0z"/>
  <path class="fil3" d="M73 558l629 0c22,0 39,13 39,30l0 464c0,17 -17,30 -39,30l-629 0c-22,0 -39,-13 -39,-30l0 -464c0,-17 17,-30 39,-30z"/>
  <path id="_1" class="fil2" d="M702 590l-629 0 0 -64 629 0 0 0 0 64zm73 -2l-67 0 0 0 0 0 0 1 0 0 0 1 0 0 0 1 0 0 1 0 0 0 0 1 0 0 0 0 0 0 0 0 0 0 0 0 0 0 0 -1 -1 0 0 0 0 0 -1 0 0 0 0 0 -1 -1 0 0 -1 0 0 0 -1 0 -1 0 0 0 -1 0 0 -64 4 0 3 0 3 0 4 1 3 0 3 1 3 1 3 1 3 1 3 1 3 1 3 2 3 1 3 2 2 2 3 2 3 2 2 2 2 2 3 2 2 3 2 2 1 3 2 3 2 3 1 3 1 3 1 4 1 3 1 4 0 3 0 4 0 0zm-67 464l0 -464 67 0 0 464 0 0 -67 0zm-6 62l0 -64 0 0 1 0 0 0 1 0 1 0 0 0 1 0 0 -1 1 0 0 0 0 0 1 0 0 0 0 0 1 -1 0 0 0 0 0 0 0 0 0 0 0 0 0 0 0 0 0 0 0 1 -1 0 0 0 0 1 0 0 0 1 0 0 0 1 0 0 67 0 0 4 0 3 -1 4 -1 3 -1 3 -1 4 -1 3 -2 3 -2 3 -1 2 -2 3 -2 3 -3 2 -2 2 -2 2 -3 2 -3 2 -2 2 -3 2 -3 1 -3 1 -3 2 -3 1 -3 1 -3 1 -3 1 -3 0 -3 1 -4 0 -3 1 -3 0 -4 0 0 0zm-629 -64l629 0 0 64 -629 0 0 0 0 -64zm-73 2l68 0 0 0 0 0 -1 -1 0 0 0 -1 0 0 0 -1 0 0 0 0 0 -1 -1 0 0 0 0 0 0 0 0 0 0 0 0 0 1 0 0 0 0 0 0 1 1 0 0 0 0 0 1 0 0 0 1 1 0 0 1 0 0 0 1 0 0 0 1 0 0 64 -3 0 -4 0 -3 -1 -3 0 -4 -1 -3 0 -3 -1 -3 -1 -3 -1 -3 -1 -3 -2 -3 -1 -3 -1 -3 -2 -2 -2 -3 -2 -2 -2 -3 -2 -2 -2 -2 -2 -2 -3 -2 -3 -2 -2 -2 -3 -2 -3 -1 -3 -1 -4 -1 -3 -1 -3 -1 -4 0 -3 0 -4 0 0zm68 -464l0 464 -68 0 0 -464 0 0 68 0zm5 -62l0 64 0 0 -1 0 0 0 -1 0 0 0 -1 0 0 0 -1 0 0 1 -1 0 0 0 -1 0 0 0 0 0 0 0 0 1 -1 0 0 0 0 0 0 0 0 0 0 0 0 0 1 -1 0 0 0 0 0 0 0 -1 0 0 0 -1 0 0 1 -1 0 0 -68 0 0 -4 0 -3 1 -4 1 -3 1 -4 1 -3 1 -3 2 -3 2 -3 2 -3 2 -2 2 -3 2 -2 2 -2 3 -2 2 -2 3 -2 2 -2 3 -2 3 -1 3 -2 3 -1 3 -1 3 -1 3 -1 3 -1 3 -1 4 0 3 -1 3 0 4 0 3 0 0 0z"/>
  <path class="fil4" d="M875 811l42 1 129 182c17,24 -5,74 -39,74l-132 0c-18,0 -33,-14 -33,-32l0 -194c0,-17 15,-31 33,-31z"/>
  <path id="_1_0" class="fil2" d="M917 825l-42 -1 0 -26 42 1 11 6 -11 20zm0 0l0 -26 1 0 1 0 0 0 1 0 1 1 0 0 1 0 0 0 1 0 1 1 0 0 1 0 0 1 1 0 0 1 1 0 0 0 1 1 0 0 0 1 1 0 0 1 0 1 0 0 1 1 0 0 0 1 0 1 0 0 0 1 0 0 0 1 0 1 0 0 0 1 0 1 0 0 0 1 0 1 -1 0 0 1 0 0 -1 1 0 0 0 1 -1 0 0 1 -1 0 0 1 -1 0 0 0 -1 1 0 0 -1 0 0 1 -1 0 -1 0 0 0 -1 0 -1 0 0 1 -1 0 -1 0 0 0zm118 177l-129 -183 22 -14 129 182 0 0 -22 15zm-28 79l0 -26 0 0 2 0 2 0 2 -1 1 0 2 -1 2 -1 2 -1 1 -1 2 -2 2 -1 1 -2 2 -2 1 -2 2 -2 1 -2 1 -2 1 -3 1 -2 1 -2 1 -3 0 -2 1 -3 0 -2 0 -2 0 -2 0 -3 0 -2 -1 -1 0 -2 -1 -2 -1 -1 0 -1 22 -15 2 4 2 3 1 4 2 3 0 4 1 4 0 3 0 4 0 4 0 4 -1 3 -1 4 -1 4 -1 3 -1 4 -2 4 -2 3 -2 3 -2 3 -2 4 -3 3 -3 2 -2 3 -4 3 -3 2 -3 2 -4 2 -4 2 -4 1 -4 1 -5 0 -4 1 0 0zm-132 -26l132 0 0 26 -132 0 0 0 0 -26zm-47 -19l28 0 0 0 0 1 0 1 0 1 0 1 0 1 0 1 1 1 0 1 0 0 1 1 0 1 1 1 0 0 1 1 1 1 0 0 1 1 1 1 0 0 1 1 1 0 1 1 1 0 0 0 1 1 1 0 1 0 1 1 1 0 1 0 1 0 1 0 0 26 -2 -1 -3 0 -2 0 -2 0 -3 -1 -2 0 -2 -1 -2 -1 -2 -1 -2 -1 -2 -1 -2 -1 -2 -1 -2 -2 -1 -1 -2 -1 -1 -2 -2 -2 -1 -1 -2 -2 -1 -2 -1 -2 -1 -1 -1 -2 -1 -2 0 -2 -1 -3 -1 -2 0 -2 0 -2 -1 -2 0 -3 0 0zm28 -194l0 194 -28 0 0 -194 0 0 28 0zm19 -44l0 26 0 0 -1 0 -1 0 -1 0 -1 0 -1 0 -1 1 -1 0 -1 0 0 1 -1 0 -1 0 -1 1 -1 0 0 1 -1 1 -1 0 0 1 -1 1 -1 0 0 1 -1 1 0 0 -1 1 0 1 0 1 -1 1 0 1 0 1 0 1 0 0 0 1 0 1 -28 0 0 -2 1 -2 0 -2 0 -3 1 -2 0 -2 1 -2 1 -2 1 -2 1 -2 1 -2 1 -1 2 -2 1 -2 2 -1 1 -2 2 -1 1 -2 2 -1 2 -1 2 -1 2 -2 2 -1 2 0 2 -1 2 -1 2 0 3 -1 2 0 2 -1 3 0 2 0 0 0z"/>
  <path class="fil4" d="M412 1195c61,0 111,48 111,106 0,59 -50,106 -111,106 -62,0 -112,-47 -112,-106 0,-58 50,-106 112,-106z"/>
  <path id="_1_1" class="fil2" d="M557 1301l-67 0 0 0 0 -3 -1 -4 0 -4 -1 -4 -1 -3 -1 -4 -1 -3 -1 -3 -2 -4 -2 -3 -2 -3 -2 -3 -2 -3 -2 -3 -3 -2 -2 -3 -3 -2 -3 -3 -3 -2 -3 -2 -3 -2 -3 -2 -4 -1 -3 -2 -4 -1 -3 -1 -4 -1 -4 -1 -4 -1 -3 0 -4 0 -4 0 0 -65 7 1 7 0 8 1 7 1 7 2 7 2 7 2 6 2 7 3 6 3 6 3 6 4 6 4 5 4 5 4 6 5 4 5 5 5 4 5 4 5 4 6 4 6 3 5 3 7 2 6 3 6 2 7 1 7 2 6 1 7 0 7 0 7 0 0zm-145 138l0 -64 0 0 4 0 4 0 3 -1 4 0 4 -1 4 -1 3 -1 4 -2 3 -1 4 -2 3 -2 3 -1 3 -3 3 -2 3 -2 3 -2 2 -3 3 -3 2 -3 2 -2 2 -3 2 -4 2 -3 2 -3 1 -3 1 -4 1 -3 1 -4 1 -3 0 -4 1 -4 0 -4 67 0 0 7 0 7 -1 7 -2 7 -1 7 -2 6 -3 7 -2 6 -3 6 -3 6 -4 6 -4 6 -4 5 -4 5 -5 5 -4 5 -6 5 -5 4 -5 4 -6 4 -6 3 -6 4 -6 3 -7 2 -6 3 -7 2 -7 2 -7 2 -7 1 -8 1 -7 0 -7 0 0 0zm-146 -138l67 0 0 0 0 4 1 4 0 4 1 3 1 4 1 3 1 4 1 3 2 3 2 3 2 4 2 3 2 2 2 3 3 3 2 3 3 2 3 2 3 2 3 3 3 1 3 2 4 2 3 1 4 2 3 1 4 1 4 1 4 0 3 1 4 0 5 0 0 64 -8 0 -7 0 -8 -1 -7 -1 -7 -2 -7 -2 -7 -2 -6 -3 -7 -2 -6 -3 -6 -4 -6 -3 -6 -4 -5 -4 -5 -4 -5 -5 -5 -5 -5 -5 -4 -5 -4 -5 -4 -6 -4 -6 -3 -6 -3 -6 -2 -6 -3 -7 -2 -6 -1 -7 -2 -7 0 -7 -1 -7 0 -7 0 0zm146 -138l0 65 0 0 -5 0 -4 0 -3 0 -4 1 -4 1 -4 1 -3 1 -4 1 -3 2 -4 1 -3 2 -3 2 -3 2 -3 2 -3 3 -3 2 -2 3 -3 2 -2 3 -2 3 -2 3 -2 3 -2 3 -2 4 -1 3 -1 3 -1 4 -1 3 -1 4 0 4 -1 4 0 3 -67 0 0 -7 1 -7 0 -7 2 -6 1 -7 2 -7 3 -6 2 -6 3 -7 3 -6 4 -5 4 -6 4 -5 4 -5 5 -5 5 -5 5 -5 5 -4 5 -4 6 -4 6 -4 6 -3 6 -3 7 -3 6 -2 7 -2 7 -2 7 -2 7 -1 8 -1 7 0 8 -1 0 0z"/>
  <path class="fil4" d="M912 1195c62,0 112,48 112,106 0,59 -50,106 -112,106 -62,0 -112,-47 -112,-106 0,-58 50,-106 112,-106z"/>
  <path id="_1_2" class="fil2" d="M1058 1301l-68 0 0 0 0 -3 0 -4 -1 -4 0 -4 -1 -3 -1 -4 -2 -3 -1 -3 -2 -4 -1 -3 -2 -3 -2 -3 -2 -3 -3 -3 -2 -2 -3 -3 -2 -2 -3 -3 -3 -2 -3 -2 -4 -2 -3 -2 -3 -1 -4 -2 -3 -1 -4 -1 -3 -1 -4 -1 -4 -1 -4 0 -4 0 -4 0 0 -65 7 1 8 0 7 1 7 1 7 2 7 2 7 2 7 2 6 3 6 3 6 3 6 4 6 4 6 4 5 4 5 5 5 5 4 5 5 5 4 5 3 6 4 6 3 5 3 7 3 6 2 6 2 7 2 7 1 6 1 7 0 7 1 7 0 0zm-146 138l0 -64 0 0 4 0 4 0 4 -1 4 0 4 -1 3 -1 4 -1 3 -2 4 -1 3 -2 3 -2 4 -1 3 -3 3 -2 3 -2 2 -2 3 -3 2 -3 3 -3 2 -2 2 -3 2 -4 1 -3 2 -3 1 -3 2 -4 1 -3 1 -4 0 -3 1 -4 0 -4 0 -4 68 0 -1 7 0 7 -1 7 -1 7 -2 7 -2 6 -2 7 -3 6 -3 6 -3 6 -4 6 -3 6 -4 5 -5 5 -4 5 -5 5 -5 5 -5 4 -6 4 -6 4 -6 3 -6 4 -6 3 -6 2 -7 3 -7 2 -7 2 -7 2 -7 1 -7 1 -8 0 -7 0 0 0zm-146 -138l68 0 0 0 0 4 0 4 1 4 0 3 1 4 1 3 1 4 2 3 1 3 2 3 2 4 2 3 2 2 2 3 3 3 3 3 2 2 3 2 3 2 3 3 3 1 4 2 3 2 3 1 4 2 4 1 3 1 4 1 4 0 4 1 4 0 4 0 0 64 -8 0 -7 0 -7 -1 -7 -1 -7 -2 -7 -2 -7 -2 -7 -3 -6 -2 -7 -3 -6 -4 -6 -3 -5 -4 -6 -4 -5 -4 -5 -5 -5 -5 -4 -5 -5 -5 -4 -5 -4 -6 -3 -6 -3 -6 -3 -6 -3 -6 -2 -7 -2 -6 -2 -7 -1 -7 -1 -7 -1 -7 0 -7 0 0zm146 -138l0 65 0 0 -4 0 -4 0 -4 0 -4 1 -4 1 -3 1 -4 1 -4 1 -3 2 -3 1 -4 2 -3 2 -3 2 -3 2 -3 3 -2 2 -3 3 -2 2 -3 3 -2 3 -2 3 -2 3 -2 3 -1 4 -2 3 -1 3 -1 4 -1 3 0 4 -1 4 0 4 0 3 -68 0 0 -7 1 -7 1 -7 1 -6 2 -7 2 -7 2 -6 3 -6 3 -7 3 -6 3 -5 4 -6 4 -5 5 -5 4 -5 5 -5 5 -5 5 -4 6 -4 5 -4 6 -4 6 -3 7 -3 6 -3 7 -2 7 -2 7 -2 7 -2 7 -1 7 -1 7 0 8 -1 0 0z"/>
 </g>
</svg>
